<svg width="25" height="24" viewBox="0 0 25 24" fill="none" xmlns="http://www.w3.org/2000/svg">
<g style="mix-blend-mode:luminosity" opacity="0.5" clip-path="url(#clip0)">
<path d="M18.9633 6.0398V5.50471C18.9633 4.05195 18.2717 2.68748 17.1012 1.82732C17.6965 2.61658 18.0175 3.5784 18.0162 4.56697V6.0398H17.0664V4.56697C17.0678 2.04537 15.0224 0 12.5008 0C9.97914 0 7.93242 2.04537 7.93242 4.56697V6.0398H0.5V22.1018C0.5 23.0623 1.27856 23.8421 2.24038 23.8421H22.7611C23.7216 23.8421 24.5015 23.0636 24.5015 22.1018V6.0398H18.9633ZM8.87953 4.56697C8.87819 2.56842 10.4982 0.947104 12.4981 0.947104C12.4994 0.947104 12.4994 0.947104 12.5008 0.947104C14.4819 0.989911 16.0778 2.58581 16.122 4.56831V6.04113H10.7751V5.50605C10.7738 3.5075 12.3937 1.88618 14.3936 1.88484C14.395 1.88484 14.395 1.88484 14.3963 1.88484C14.5635 1.88484 14.7294 1.89688 14.894 1.9223C14.4405 1.71362 13.9482 1.60526 13.4492 1.60392C12.2787 1.60259 11.1791 2.16978 10.5009 3.12357C10.0607 3.84059 9.82798 4.66462 9.82932 5.50471V6.0398H8.87953V4.56697Z" fill="#E8E8E8"/>
<path d="M12.1127 9.90576H7.46814V14.5517H12.1127V9.90576Z" fill="#F25022"/>
<path d="M17.5318 9.90576H12.8872V14.5517H17.5318V9.90576Z" fill="#7FBA00"/>
<path d="M12.1127 15.3246H7.46814V19.9691H12.1127V15.3246Z" fill="#00A4EF"/>
<path d="M17.5318 15.3246H12.8872V19.9691H17.5318V15.3246Z" fill="#FFB900"/>
</g>
<defs>
<clipPath id="clip0">
<rect width="24" height="24" fill="white" transform="translate(0.5)"/>
</clipPath>
</defs>
</svg>
