<svg width="31" height="30" viewBox="0 0 31 30" fill="none" xmlns="http://www.w3.org/2000/svg">
<g style="mix-blend-mode:luminosity" opacity="0.5" clip-path="url(#clip0)">
<path fill-rule="evenodd" clip-rule="evenodd" d="M26.2412 -1.90735e-05H4.75883C3.0176 -1.90735e-05 2.375 0.632864 2.375 2.34855V23.051C2.375 23.2451 2.38295 23.4255 2.40036 23.5926C2.44001 23.9671 2.44747 24.3299 2.80111 24.7431C2.83567 24.7836 3.19672 25.0482 3.19672 25.0482C3.39093 25.142 3.52354 25.2111 3.74257 25.2979L14.3208 29.6628C14.8699 29.9107 15.0996 30.0073 15.4984 29.9996V29.9996C15.499 29.9996 15.4995 29.9996 15.5 29.9996C15.5005 29.9996 15.501 29.9996 15.5016 29.9996V29.9996C15.9004 30.0073 16.13 29.9107 16.6793 29.6628L27.2574 25.2979C27.4765 25.2111 27.6091 25.142 27.8033 25.0482C27.8033 25.0482 28.1644 24.7836 28.1989 24.7431C28.5525 24.3299 28.56 23.9671 28.5996 23.5926C28.617 23.4255 28.625 23.2451 28.625 23.051V2.34855C28.625 0.632864 27.9824 -1.90735e-05 26.2412 -1.90735e-05Z" fill="#2F2D2E"/>
<path d="M24.8023 20.8137L24.7974 20.8614L24.7926 20.9139L24.7829 20.9617L24.7684 21.0094L24.759 21.0524L24.7444 21.1002L24.725 21.1432L24.7056 21.1814L24.6865 21.2243L24.6623 21.2625L24.638 21.3008L24.6092 21.339L24.5849 21.3771L24.5562 21.4105L24.5222 21.444L24.4934 21.4726L24.4547 21.5061L24.421 21.5347L24.3822 21.5634L24.3437 21.5869L24.3052 21.6156L24.2615 21.6395L24.2182 21.6586L24.1748 21.6825L24.1263 21.7016L24.0781 21.7207L24.03 21.735L23.9818 21.7494L23.9381 21.7636L23.8899 21.7732L23.8466 21.7827L23.8032 21.7923L23.7547 21.8019L23.7065 21.8066L23.6632 21.8114L23.6147 21.8162L23.5617 21.821L23.5134 21.8257H23.4652H23.4122H23.3588H23.3107L23.2624 21.821H23.2094L23.1612 21.8162L23.1127 21.8114L23.0597 21.8066L23.0115 21.7971L22.9633 21.7923L22.9148 21.7827L22.8665 21.7732L22.8184 21.7636L22.7702 21.7541L22.7217 21.7398L22.6783 21.7302L22.6301 21.7159L22.5819 21.7016L22.5383 21.6825L22.4901 21.6681L22.4468 21.6538L22.3985 21.6347L22.3549 21.6156L22.3116 21.5965L22.2682 21.5729L22.2246 21.5538L22.1812 21.5299L22.1427 21.5061L22.0991 21.4822L22.0606 21.4583L22.0218 21.4345L21.9833 21.4058L21.9448 21.3771L21.906 21.3485L21.8674 21.3198L21.8335 21.2912L21.795 21.2578L21.8241 21.2196L21.8578 21.1861L21.8868 21.1479L21.9205 21.1097L21.9496 21.0763L21.9784 21.0381L22.0124 20.9999L22.0411 20.9665L22.0751 20.9283L22.1039 20.8948L22.1378 20.8566L22.1667 20.8184L22.1958 20.785L22.2294 20.7468L22.2585 20.7086L22.2921 20.6752L22.3212 20.637L22.3597 20.6656L22.4031 20.6943L22.4419 20.723L22.4853 20.7516L22.524 20.7755L22.5674 20.8041L22.6059 20.828L22.6496 20.8471L22.688 20.871L22.7314 20.8901L22.775 20.9092L22.8184 20.9283L22.8618 20.9426L22.9054 20.9617L22.9536 20.976L23.0018 20.9903L23.0451 21.0047L23.0936 21.0143L23.1418 21.0238L23.19 21.0333L23.2431 21.0381L23.2915 21.0476H23.3398L23.3928 21.0524H23.441H23.4989L23.5519 21.0476L23.6004 21.0381L23.6438 21.0285L23.6871 21.019L23.7259 21.0047L23.7596 20.9856L23.7984 20.9569L23.8271 20.9235L23.8466 20.8852L23.8612 20.8423L23.8659 20.7945V20.785L23.8612 20.7277L23.8417 20.6799L23.8175 20.6465L23.7838 20.6179L23.745 20.5892L23.7065 20.5701L23.6632 20.551L23.6147 20.5319L23.5568 20.5081L23.5231 20.4985L23.4846 20.489L23.441 20.4746L23.3976 20.465L23.3494 20.4507L23.3009 20.4412L23.2479 20.4269L23.1997 20.4173L23.1466 20.403L23.0984 20.3935L23.0499 20.3791L23.0018 20.3695L22.9536 20.3552L22.9099 20.3409L22.8618 20.3314L22.8184 20.317L22.775 20.3027L22.7314 20.2884L22.6783 20.2692L22.6301 20.2501L22.5819 20.2311L22.5335 20.2119L22.4901 20.1881L22.4419 20.1642L22.4031 20.1403L22.3597 20.1165L22.3212 20.0878L22.2825 20.064L22.2488 20.0353L22.2149 20.0019L22.1812 19.9684L22.1521 19.935L22.1233 19.9016L22.0991 19.8682L22.0751 19.8299L22.0509 19.787L22.0315 19.7539L22.0169 19.7156L22.0027 19.6726L21.9881 19.6344L21.9784 19.5867L21.9687 19.5437L21.9639 19.496L21.959 19.4482L21.9542 19.3957V19.3431V19.3336V19.2858L21.959 19.2381L21.9639 19.1951L21.9687 19.1473L21.9784 19.1044L21.9881 19.0614L22.0027 19.0184L22.0124 18.9755L22.0315 18.9325L22.0509 18.8895L22.0702 18.8466L22.0943 18.8035L22.1184 18.7606L22.1473 18.7223L22.1764 18.6842L22.21 18.646L22.2439 18.6126L22.2776 18.5743L22.3164 18.5409L22.3501 18.517L22.3888 18.4884L22.4274 18.4597L22.4658 18.4358L22.5095 18.412L22.5529 18.3929L22.5962 18.369L22.6398 18.3499L22.688 18.3355L22.7362 18.3165L22.7798 18.3021L22.8184 18.2926L22.8618 18.283L22.9054 18.2735L22.9536 18.264L22.9969 18.2544L23.0451 18.2496L23.0936 18.2448L23.1418 18.24L23.19 18.2353H23.2382H23.2915H23.3446H23.3976L23.4507 18.24L23.5037 18.2448H23.5519L23.6052 18.2496L23.6534 18.2592L23.7065 18.264L23.7547 18.2735L23.7984 18.283L23.8466 18.2926L23.8947 18.3021L23.9381 18.3117L23.9866 18.326L24.03 18.3403L24.0733 18.3499L24.1218 18.369L24.1652 18.3833L24.2085 18.4024L24.2518 18.4215L24.3003 18.4406L24.3437 18.4645L24.3822 18.4836L24.4258 18.5075L24.4692 18.5313L24.5077 18.5553L24.5513 18.5839L24.5899 18.6077L24.6286 18.6364L24.6671 18.6651L24.7056 18.6937L24.6768 18.7319L24.6526 18.7701L24.6238 18.8083L24.5947 18.8466L24.5659 18.8895L24.5416 18.9277L24.5125 18.9659L24.4837 19.0041L24.4595 19.0423L24.4306 19.0805L24.4016 19.1187L24.3773 19.1569L24.3485 19.1999L24.3194 19.2381L24.2906 19.2763L24.2664 19.3145L24.2376 19.3527L24.1988 19.3241L24.1555 19.3002L24.1169 19.2763L24.0781 19.2476L24.0348 19.2286L23.996 19.2047L23.9527 19.1855L23.9142 19.1665L23.8705 19.1473L23.832 19.1283L23.7887 19.1139L23.7499 19.0948L23.6968 19.0805L23.6486 19.0662L23.6004 19.0519L23.5519 19.0423L23.5037 19.0328L23.4555 19.0232L23.4074 19.0184L23.3588 19.0136L23.3155 19.0089H23.2673H23.2094L23.1564 19.0184L23.1079 19.028L23.0645 19.0375L23.026 19.0566L22.9921 19.0757L22.9487 19.1139L22.9196 19.1569L22.9006 19.1999L22.8956 19.2476V19.2572L22.9006 19.3193L22.9245 19.3718L22.9439 19.4005L22.9775 19.4339L23.0212 19.4578L23.0597 19.4816L23.1079 19.5007L23.1612 19.5199L23.2191 19.5389L23.2576 19.5485L23.2961 19.5628L23.3398 19.5723L23.3831 19.5867L23.4313 19.5963L23.4846 19.6106L23.5377 19.6249L23.5908 19.6392L23.6438 19.6488L23.6919 19.6631L23.745 19.6774L23.7935 19.687L23.8417 19.7013L23.8899 19.7156L23.9333 19.7299L23.9818 19.7443L24.0251 19.7586L24.0685 19.7729L24.1218 19.7917L24.17 19.8156L24.2182 19.8347L24.2664 19.8586L24.31 19.8825L24.3534 19.9064L24.3919 19.9302L24.4306 19.9589L24.4692 19.9827L24.5077 20.0162L24.5465 20.0496L24.5801 20.0878L24.614 20.1212L24.6429 20.1595L24.672 20.2024L24.6959 20.2406L24.7202 20.2836L24.7396 20.3218L24.7541 20.3647L24.7684 20.4077L24.7781 20.4507L24.7877 20.4985L24.7974 20.5463L24.8023 20.594L24.8072 20.6465V20.699V20.7086V20.7611L24.8023 20.8137ZM21.4171 21.7685H21.3686H21.3204H21.2723H21.2241H21.1756H21.1273H21.0792H21.0309H20.9776H20.9294H20.8812H20.8331H20.7845H20.7364H20.6881H20.6399H20.5914H20.5432H20.495H20.4469H20.3986H20.3502H20.302H20.2538H20.2055H20.157H20.1088H20.0607H20.0076H19.9592H19.9109H19.8627H19.8145H19.7661H19.7178H19.6697H19.6214H19.573H19.5248H19.4766H19.4283H19.3798H19.3317H19.2835H19.2353H19.1868H19.1386H19.0855H19.0373H18.9891H18.9406H18.8924H18.8442H18.7961H18.7476H18.6994H18.6512V21.7207V21.6729V21.6252V21.5777V21.5299V21.4822V21.4345V21.3867V21.339V21.2912V21.2434V21.1957V21.1479V21.1002V21.0524V21.0047V20.9569V20.9092V20.8662V20.8184V20.7707V20.723V20.6752V20.6274V20.5797V20.5319V20.4841V20.4364V20.3887V20.3409V20.2932V20.2454V20.1977V20.1499V20.1021V20.0544V20.0066V19.9589V19.9112V19.8634V19.8156V19.7681V19.7204V19.6726V19.6249V19.5771V19.5294V19.4816V19.4339V19.3861V19.3383V19.2906V19.2428V19.1951V19.1521V19.1044V19.0566V19.0089V18.9611V18.9134V18.8656V18.8178V18.7701V18.7223V18.6746V18.6268V18.5791V18.5313V18.4836V18.4358V18.3881V18.3403V18.2926H18.6994H18.7476H18.7961H18.8442H18.8924H18.9406H18.9891H19.0373H19.0855H19.1338H19.1822H19.2305H19.2786H19.3268H19.3704H19.4187H19.4668H19.5151H19.5635H19.6117H19.6599H19.7082H19.7566H19.8048H19.853H19.9012H19.9497H19.9979H20.0461H20.0943H20.1428H20.1911H20.2392H20.2874H20.3356H20.3841H20.4323H20.4805H20.5287H20.5772H20.6254H20.6736H20.7218H20.7655H20.8136H20.8618H20.9101H20.9585H21.0067H21.0549H21.1031H21.1516H21.1998H21.248H21.2962H21.3447H21.3929H21.4411V18.3403V18.3833V18.431V18.4788V18.5265V18.5695V18.6173V18.6651V18.708V18.7558V18.8035V18.8466V18.8943V18.942V18.9898V19.0328V19.0805H21.3929H21.3447H21.2962H21.248H21.1998H21.1516H21.108H21.0598H21.0116H20.9633H20.9149H20.8667H20.8185H20.7703H20.7218H20.6736H20.6254H20.5772H20.5287H20.4854H20.4371H20.3889H20.3404H20.2923H20.2441H20.1959H20.1474H20.0992H20.051H20.0028H19.9543H19.906H19.8627H19.8145H19.7661H19.7178H19.6697H19.6214H19.573V19.1283V19.176V19.2237V19.2715V19.3193V19.3623V19.41V19.4578V19.5055V19.5533V19.601V19.6488H19.6214H19.6697H19.7178H19.7661H19.8145H19.8627H19.9109H19.9592H20.0028H20.051H20.0992H20.1474H20.1959H20.2441H20.2923H20.3404H20.3889H20.4371H20.4854H20.5336H20.582H20.6302H20.6784H20.7267H20.7751H20.8233H20.8667H20.9149H20.9633H21.0116H21.0598H21.108H21.1564H21.2047H21.2528V19.6965V19.7395V19.787V19.8347V19.8777V19.9254V19.9732V20.0162V20.064V20.1117V20.1595V20.2024V20.2501V20.2979V20.3409V20.3887H21.2047H21.1564H21.108H21.0598H21.0116H20.9633H20.9149H20.8667H20.8233H20.7751H20.7267H20.6784H20.6302H20.582H20.5336H20.4854H20.4371H20.3889H20.3404H20.2923H20.2441H20.1959H20.1474H20.0992H20.051H20.0028H19.9592H19.9109H19.8627H19.8145H19.7661H19.7178H19.6697H19.6214H19.573V20.4364V20.489V20.5367V20.5845V20.637V20.6848V20.7325V20.785V20.8327V20.8805V20.933V20.9807H19.6214H19.6697H19.7178H19.7661H19.8145H19.8627H19.9109H19.9592H20.0076H20.0607H20.1088H20.157H20.2055H20.2538H20.302H20.3502H20.3986H20.4469H20.495H20.5432H20.5914H20.6399H20.6881H20.7364H20.7845H20.8331H20.8812H20.9294H20.9776H21.0309H21.0792H21.1273H21.1756H21.2241H21.2723H21.3204H21.3686H21.4171H21.4653V21.0285V21.0715V21.1193V21.167V21.2148V21.2578V21.3055V21.3532V21.3963V21.444V21.4917V21.5347V21.5822V21.6299V21.6777V21.7207V21.7685H21.4171ZM17.8902 21.7685H17.842H17.7938H17.7405H17.6923H17.6441H17.5959H17.5474H17.4992H17.4461H17.3979H17.3497H17.3012H17.2531H17.2049H17.1518H17.1033H17.0551H17.0069V21.7207V21.6729V21.6252V21.5774V21.5294V21.4816V21.4339V21.3861V21.3384V21.2906V21.2429V21.1949V21.1471V21.0993V21.0516V21.0038V20.9558V20.908V20.8603V20.8125V20.7648V20.717V20.669V20.6213V20.5735V20.5257V20.478V20.4302V20.3822V20.3344V20.2867V20.2389V20.1912V20.1434V20.0954V20.0477V19.9999V19.9522V19.9044V19.8563V19.8086V19.7608V19.7131L16.9827 19.7513L16.9539 19.7946L16.9296 19.8327L16.9008 19.871L16.8766 19.9139L16.8474 19.9522L16.8235 19.9904L16.7993 20.0336L16.7705 20.0718L16.7462 20.11L16.7172 20.1482L16.6932 20.1915L16.6641 20.2297L16.6401 20.2679L16.6159 20.3108L16.5868 20.3493L16.5628 20.3875L16.5337 20.4305L16.5098 20.4687L16.4807 20.5069L16.4568 20.5502L16.4325 20.5884L16.4034 20.6266L16.3795 20.6696L16.3504 20.708L16.3264 20.7462L16.2973 20.7845L16.273 20.8274L16.2491 20.8659L16.22 20.9041L16.1961 20.9471L16.167 20.9853L16.1428 21.0235L16.1139 21.0668L16.0897 21.105H16.0706L16.0415 21.062L16.0172 21.0235L15.9884 20.9805L15.9642 20.9423L15.9353 20.8994L15.9111 20.8609L15.8823 20.8179L15.8581 20.7796L15.829 20.7367L15.805 20.6985L15.7759 20.6552L15.752 20.617L15.7229 20.574L15.6986 20.5358L15.6699 20.4926L15.6456 20.4544L15.6168 20.4114L15.5877 20.3732L15.5635 20.33L15.5347 20.2918L15.5104 20.2488L15.4816 20.2106L15.4574 20.1673L15.4285 20.1291L15.4043 20.0861L15.3752 20.0479L15.3513 20.0049L15.3222 19.9664L15.2982 19.9235L15.2691 19.8853L15.2449 19.8423L15.2161 19.8041L15.1918 19.7608L15.163 19.7226V19.7704V19.8182V19.8659V19.9139V19.9617V20.0094V20.0572V20.105V20.153V20.2007V20.2437V20.2915V20.3392V20.387V20.435V20.4828V20.5305V20.5782V20.626V20.6738V20.7218V20.7696V20.8173V20.8651V20.9128V20.9606V21.0086V21.0563V21.1041V21.1518V21.1996V21.2476V21.2906V21.3384V21.3861V21.4339V21.4816V21.5294V21.5774V21.6252V21.6729V21.7207V21.7685H15.1148H15.0664H15.0181H14.9699H14.9217H14.8733H14.825H14.7769H14.7286H14.6802H14.632H14.5837H14.5355H14.4871H14.4389H14.3907H14.3424H14.294H14.2458V21.7207V21.6729V21.6252V21.5777V21.5299V21.4822V21.4345V21.3867V21.339V21.2912V21.2434V21.1957V21.1479V21.1002V21.0524V21.0047V20.9569V20.9092V20.8662V20.8184V20.7707V20.723V20.6752V20.6274V20.5797V20.5319V20.4841V20.4364V20.3887V20.3409V20.2932V20.2454V20.1977V20.1499V20.1021V20.0544V20.0066V19.9589V19.9112V19.8634V19.8156V19.7681V19.7204V19.6726V19.6249V19.5771V19.5294V19.4816V19.4339V19.3861V19.3383V19.2906V19.2428V19.1951V19.1521V19.1044V19.0566V19.0089V18.9611V18.9134V18.8656V18.8178V18.7701V18.7223V18.6746V18.6268V18.5791V18.5313V18.4836V18.4358V18.3881V18.3403V18.2926H14.294H14.3424H14.3858H14.434H14.4822H14.5307H14.5741H14.6222H14.6708H14.7189H14.7623H14.8105H14.859H14.9072H14.9505H14.9987H15.0472H15.0955H15.1388H15.187H15.2355L15.2594 18.3308L15.2837 18.3737L15.3124 18.4117L15.3367 18.4546L15.3609 18.4928L15.3849 18.5359L15.4091 18.5737L15.438 18.6168L15.4622 18.655L15.4865 18.6932L15.5104 18.7358L15.5347 18.7741L15.5635 18.817L15.5877 18.8552L15.6119 18.8979L15.6359 18.9361L15.665 18.9743L15.6893 19.0171L15.7132 19.0552L15.7374 19.0982L15.7614 19.1364L15.7905 19.1791L15.8147 19.2173L15.8386 19.2603L15.8629 19.2982L15.8869 19.3364L15.916 19.3794L15.9402 19.4176L15.9642 19.4606L15.9884 19.4985L16.0124 19.5415L16.0415 19.5797L16.0657 19.6224L16.0897 19.6606L16.1139 19.6224L16.1382 19.5797L16.167 19.5415L16.1912 19.4985L16.2152 19.4606L16.2394 19.4176L16.2682 19.3794L16.2925 19.3364L16.3167 19.2982L16.3406 19.2603L16.3697 19.2173L16.3937 19.1791L16.418 19.1364L16.4422 19.0982L16.471 19.0552L16.4952 19.0171L16.5195 18.9743L16.5434 18.9361L16.5677 18.8979L16.5965 18.8552L16.6207 18.817L16.645 18.7741L16.669 18.7358L16.698 18.6932L16.722 18.655L16.7462 18.6168L16.7705 18.5737L16.7993 18.5359L16.8235 18.4928L16.8474 18.4546L16.8717 18.4117L16.9008 18.3737L16.9248 18.3308L16.949 18.2926H16.9972H17.0454H17.089H17.1373H17.1855H17.2336H17.2773H17.3255H17.3737H17.4219H17.4655H17.5137H17.5619H17.6102H17.6537H17.702H17.7502H17.7984H17.842H17.8902H17.9384V18.3403V18.3881V18.4358V18.4836V18.5313V18.5791V18.6268V18.6746V18.7223V18.7701V18.8178V18.8656V18.9134V18.9611V19.0089V19.0566V19.1044V19.1521V19.1951V19.2428V19.2906V19.3383V19.3861V19.4339V19.4816V19.5294V19.5771V19.6249V19.6726V19.7204V19.7681V19.8156V19.8634V19.9112V19.9589V20.0066V20.0544V20.1021V20.1499V20.1977V20.2454V20.2932V20.3409V20.3887V20.4364V20.4841V20.5319V20.5797V20.6274V20.6752V20.723V20.7707V20.8184V20.8662V20.9092V20.9569V21.0047V21.0524V21.1002V21.1479V21.1957V21.2434V21.2912V21.339V21.3867V21.4345V21.4822V21.5299V21.5777V21.6252V21.6729V21.7207V21.7685H17.8902ZM12.2895 20.3361L12.275 20.2929L12.2559 20.2451L12.2365 20.2021L12.2219 20.1589L12.2028 20.1159L12.1835 20.0681L12.1689 20.0249L12.1495 19.9819L12.1304 19.939L12.1158 19.8957L12.0964 19.8479L12.0822 19.8049L12.0628 19.7617L12.0433 19.7187L12.0288 19.6757L12.0097 19.6277L11.9903 19.5847L11.9758 19.5418L11.9564 19.4985L11.9373 19.4507L11.9227 19.4075L11.9033 19.3645L11.8842 19.4075L11.8697 19.4507L11.8503 19.4985L11.8309 19.5418L11.8166 19.5847L11.7973 19.6277L11.7779 19.6757L11.7588 19.7187L11.7442 19.7617L11.7248 19.8049L11.7054 19.8479L11.6911 19.8957L11.6717 19.939L11.6523 19.9819L11.6378 20.0249L11.6187 20.0681L11.5993 20.1159L11.5799 20.1589L11.5657 20.2021L11.5463 20.2451L11.5269 20.2929L11.5123 20.3361L11.4932 20.3791H11.5414H11.5896H11.6378H11.6863H11.7345H11.7827H11.8309H11.8794H11.9227H11.9709H12.0194H12.0676H12.1158H12.1641H12.2122H12.2607H12.3089L12.2895 20.3361ZM13.8054 21.7685H13.757H13.7136H13.6654H13.6169H13.5687H13.5205H13.4772H13.4287H13.3805H13.3323H13.284H13.2356H13.1922H13.144H13.0958H13.0473H12.9991H12.9558H12.9076H12.8591L12.84 21.7254L12.8254 21.6825L12.8061 21.6395L12.7866 21.5917L12.7724 21.549L12.753 21.5061L12.7336 21.4631L12.7193 21.4201L12.7 21.3771L12.6805 21.3342L12.666 21.2912L12.6469 21.2434L12.6275 21.2005L12.6129 21.1575L12.5935 21.1145H12.5453H12.4971H12.449H12.4008H12.3571H12.3089H12.2607H12.2122H12.1641H12.1158H12.0676H12.0194H11.9709H11.9227H11.8794H11.8309H11.7827H11.7345H11.6863H11.6378H11.5896H11.5414H11.4932H11.445H11.4013H11.3532H11.305H11.2565H11.2083L11.1892 21.1575L11.1746 21.2005L11.1552 21.2434L11.1358 21.2912L11.1216 21.3342L11.1022 21.3771L11.0828 21.4201L11.0682 21.4631L11.0492 21.5061L11.0297 21.549L11.0152 21.5917L10.996 21.6395L10.9767 21.6825L10.9621 21.7254L10.9427 21.7685H10.8945H10.8463H10.7982H10.7497H10.7015H10.6484H10.6002H10.552H10.5035H10.4553H10.4071H10.3589H10.3104H10.2623H10.2141H10.161H10.1125H10.0643H10.0161H9.9679L9.98699 21.7254L10.0064 21.6825L10.0258 21.6395L10.0449 21.5917L10.0595 21.549L10.0789 21.5061L10.0982 21.4631L10.1173 21.4201L10.1367 21.3771L10.1562 21.3294L10.1752 21.2864L10.1947 21.2434L10.2092 21.2005L10.2286 21.1575L10.2477 21.1145L10.2671 21.0668L10.2864 21.0238L10.3056 20.9807L10.325 20.9378L10.3444 20.8948L10.3589 20.8518L10.378 20.8041L10.3974 20.7611L10.4168 20.7182L10.4359 20.6752L10.4553 20.6322L10.4748 20.5892L10.4938 20.5414L10.5084 20.4985L10.5278 20.4555L10.5472 20.4125L10.5663 20.3695L10.5857 20.3266L10.605 20.2788L10.6242 20.2358L10.6435 20.1929L10.6581 20.1499L10.6775 20.1069L10.6966 20.064L10.716 20.0162L10.7354 19.9732L10.7545 19.9302L10.7739 19.8872L10.7933 19.8443L10.8078 19.8013L10.827 19.7586L10.8463 19.7108L10.8657 19.6679L10.8849 19.6249L10.9042 19.5819L10.9236 19.5389L10.9427 19.496L10.9573 19.4482L10.9767 19.4052L10.996 19.3623L11.0152 19.3193L11.0346 19.2763L11.054 19.2333L11.0731 19.1855L11.0925 19.1426L11.107 19.0996L11.1264 19.0566L11.1455 19.0136L11.1649 18.9707L11.1843 18.9229L11.2034 18.88L11.2228 18.837L11.2422 18.794L11.2565 18.7511L11.2759 18.708L11.2953 18.6603L11.3147 18.6173L11.3338 18.5743L11.3532 18.5313L11.3726 18.4884L11.3917 18.4454L11.4063 18.3976L11.4256 18.3547L11.445 18.3117L11.4641 18.2687H11.5123H11.556H11.6041H11.6523H11.7008H11.7442H11.7923H11.8406H11.8891H11.9325H11.9806H12.0288H12.0773H12.1207H12.1689H12.2171H12.2656H12.3089H12.3571L12.3765 18.3117L12.3959 18.3547L12.415 18.3976L12.4344 18.4454L12.449 18.4884L12.468 18.5313L12.4875 18.5743L12.5068 18.6173L12.5262 18.6603L12.5453 18.708L12.5647 18.7511L12.5842 18.794L12.5984 18.837L12.6178 18.88L12.6372 18.9229L12.6566 18.9707L12.6757 19.0136L12.6951 19.0566L12.7145 19.0996L12.7336 19.1426L12.7481 19.1855L12.7675 19.2333L12.7866 19.2763L12.8061 19.3193L12.8254 19.3623L12.8448 19.4052L12.8639 19.4482L12.8833 19.496L12.8979 19.5389L12.917 19.5819L12.9363 19.6249L12.9558 19.6679L12.9752 19.7108L12.9943 19.7586L13.0137 19.8013L13.033 19.8443L13.0473 19.8872L13.0667 19.9302L13.0861 19.9732L13.1052 20.0162L13.1246 20.064L13.144 20.1069L13.1634 20.1499L13.1825 20.1929L13.1971 20.2358L13.2164 20.2788L13.2356 20.3266L13.2549 20.3695L13.2744 20.4125L13.2937 20.4555L13.3129 20.4985L13.3323 20.5414L13.3468 20.5892L13.3659 20.6322L13.3853 20.6752L13.4047 20.7182L13.4238 20.7611L13.4432 20.8041L13.4626 20.8518L13.482 20.8948L13.4963 20.9378L13.5157 20.9807L13.5351 21.0238L13.5542 21.0668L13.5735 21.1145L13.593 21.1575L13.6123 21.2005L13.6314 21.2434L13.646 21.2864L13.6654 21.3294L13.6845 21.3771L13.7039 21.4201L13.7232 21.4631L13.7424 21.5061L13.7617 21.549L13.7812 21.5917L13.7958 21.6395L13.8148 21.6825L13.8342 21.7254L13.8536 21.7685H13.8054ZM9.57661 21.3246L9.53784 21.3532L9.50414 21.3771L9.46537 21.4058L9.42686 21.4297L9.38836 21.4583L9.34958 21.4822L9.31107 21.5061L9.26743 21.5299L9.22405 21.5538L9.18068 21.5777L9.13709 21.5965L9.09372 21.6204L9.04553 21.6395L9.00221 21.6586L8.9537 21.6777L8.91038 21.6968L8.86695 21.7111L8.82336 21.7254L8.77999 21.7398L8.7318 21.7541L8.68848 21.7685L8.63997 21.778L8.5966 21.7875L8.54841 21.7971L8.49995 21.8066L8.45171 21.8114L8.39865 21.8162L8.35047 21.821L8.29741 21.8257L8.2489 21.8305L8.1959 21.8353H8.14285H8.08974H8.03674H7.98823L7.94004 21.8305L7.88699 21.8257L7.8388 21.821L7.79061 21.8162L7.7421 21.8114L7.69391 21.8019L7.64567 21.7923L7.60235 21.7827L7.5539 21.7732L7.51052 21.7589L7.46234 21.7494L7.41869 21.735L7.37532 21.7159L7.33194 21.7016L7.28381 21.6825L7.24017 21.6634L7.19679 21.6443L7.15347 21.6252L7.10977 21.6013L7.07132 21.5777L7.02795 21.5538L6.98917 21.5299L6.95067 21.5061L6.91189 21.4774L6.87338 21.4488L6.83482 21.4201L6.80091 21.3915L6.76727 21.3628L6.73331 21.3294L6.69967 21.3008L6.66571 21.2673L6.63207 21.2339L6.60297 21.2005L6.57415 21.1623L6.54505 21.1288L6.52082 21.0906L6.492 21.0524L6.46782 21.0143L6.44381 20.976L6.41958 20.933L6.39535 20.8948L6.37626 20.8518L6.35685 20.8089L6.33749 20.7659L6.31834 20.723L6.30379 20.6848L6.28438 20.6417L6.2747 20.5987L6.26042 20.5558L6.25074 20.5081L6.23619 20.465L6.22651 20.4173L6.22164 20.3743L6.21191 20.3266L6.20715 20.2836L6.20223 20.2358L6.19768 20.1881L6.19287 20.1403V20.0878V20.04V20.0305V19.9827L6.19768 19.9302V19.8825L6.20223 19.8347L6.20715 19.7822L6.21683 19.7347L6.22164 19.687L6.23132 19.644L6.24587 19.5963L6.2556 19.5485L6.26983 19.5055L6.28438 19.4578L6.29893 19.4148L6.31834 19.367L6.33749 19.3241L6.35685 19.2811L6.37626 19.2381L6.39535 19.1951L6.41958 19.1521L6.44381 19.1139L6.46782 19.0757L6.492 19.0375L6.51628 18.9993L6.54505 18.9611L6.57415 18.9229L6.60297 18.8847L6.63207 18.8512L6.66571 18.8178L6.6948 18.7844L6.7285 18.7511L6.76241 18.7176L6.79605 18.689L6.83482 18.6555L6.86852 18.6268L6.90702 18.5982L6.9458 18.5743L6.9843 18.5457L7.02314 18.5218L7.06159 18.4979L7.10496 18.474L7.14861 18.4502L7.19193 18.4263L7.2353 18.4072L7.27889 18.3881L7.32713 18.3642L7.36564 18.3499L7.41382 18.3355L7.45752 18.3165L7.50084 18.3069L7.54416 18.2926L7.59262 18.283L7.63599 18.2687L7.68418 18.2592L7.73242 18.2544L7.78088 18.2448L7.82912 18.24L7.87725 18.2353L7.92549 18.2305L7.974 18.2257H8.02706H8.07525H8.12825H8.1813L8.23468 18.2305L8.28773 18.2353H8.33592L8.38411 18.24L8.43716 18.2496L8.48081 18.2544L8.52899 18.264L8.57723 18.2735L8.62082 18.283L8.66414 18.2926L8.70757 18.3021L8.75122 18.3165L8.79453 18.326L8.83304 18.3403L8.87669 18.3547L8.92006 18.3737L8.96338 18.3929L9.00702 18.412L9.0504 18.4358L9.09372 18.455L9.13255 18.4788L9.17587 18.5027L9.21437 18.5265L9.25802 18.5505L9.29652 18.5791L9.33503 18.603L9.37381 18.6316L9.41231 18.6603L9.45109 18.6937L9.4896 18.7223L9.4605 18.7606L9.42686 18.794L9.39776 18.8322L9.36412 18.8704L9.33503 18.9086L9.3062 18.942L9.27224 18.9802L9.24347 19.0184L9.21437 19.0519L9.18068 19.0901L9.15164 19.1283L9.11795 19.1665L9.08885 19.1999L9.06008 19.2381L9.02617 19.2763L8.99729 19.3145L8.96338 19.3479L8.93455 19.3861L8.89578 19.3575L8.85727 19.3241L8.81849 19.3002L8.77999 19.2715L8.74148 19.2476L8.7027 19.2237L8.66414 19.1999L8.62082 19.176L8.58205 19.1569L8.54354 19.1378L8.50476 19.1235L8.46139 19.1092L8.41807 19.0948L8.37443 19.0853L8.32624 19.0757L8.27805 19.0662L8.22981 19.0614L8.17676 19.0566L8.12343 19.0519H8.07038H8.02219L7.974 19.0566L7.93036 19.0614L7.88217 19.071L7.8388 19.0805L7.79516 19.0948L7.75184 19.1092L7.70846 19.1283L7.66509 19.1473L7.62631 19.1712L7.58786 19.1951L7.54903 19.219L7.51539 19.2476L7.48143 19.2763L7.44779 19.305L7.41869 19.3383L7.38505 19.3718L7.35596 19.41L7.33194 19.4434L7.30771 19.4816L7.28381 19.5246L7.25953 19.5628L7.24017 19.6058L7.22562 19.6488L7.20647 19.6918L7.19193 19.7395L7.18224 19.787L7.17256 19.8299L7.16283 19.8825L7.15802 19.9302L7.15347 19.9779V20.0305V20.04V20.0878L7.15802 20.1356L7.16283 20.1785L7.1677 20.2263L7.17738 20.2692L7.18711 20.3123L7.19679 20.3552L7.21134 20.3982L7.22562 20.4364L7.24503 20.4841L7.2644 20.5272L7.28835 20.5701L7.31258 20.6083L7.33681 20.6465L7.36564 20.6848L7.39473 20.7182L7.42837 20.7516L7.45752 20.785L7.49111 20.8137L7.52994 20.8423L7.56844 20.871L7.6069 20.8948L7.64567 20.9187L7.6891 20.9378L7.73242 20.9569L7.77601 20.976L7.82425 20.9903L7.87244 21.0047L7.92095 21.0143L7.96914 21.0238L8.01732 21.0285L8.07038 21.0333H8.12343H8.1813L8.23468 21.0285L8.28773 21.0238L8.33592 21.019L8.38411 21.0094L8.43262 20.9999L8.48081 20.9856L8.52413 20.976L8.56755 20.9569L8.60633 20.9378L8.64965 20.9187L8.68356 20.8996L8.72212 20.8757V20.828V20.7803V20.7325V20.6848V20.6322V20.5845V20.5367V20.489V20.4412H8.67388H8.63029H8.58205H8.53386H8.48567H8.44203H8.39379H8.3456H8.29741H8.25382H8.20558H8.1574H8.10915H8.06556H8.01732V20.3935V20.3505V20.3027V20.255V20.2072V20.1642V20.1165V20.0687V20.021V19.9779V19.9302V19.8825V19.8347V19.7917V19.7443H8.06556H8.11402H8.16226H8.2104H8.25864H8.30682H8.35534H8.40352H8.45171H8.49995H8.54841H8.5966H8.64478H8.69297H8.74148H8.78972H8.83791H8.8861H8.93455H8.98279H9.03098H9.07917H9.12763H9.17587H9.22405H9.27224H9.32075H9.36894H9.41718H9.46537H9.51382H9.56201H9.61025V19.7917V19.8395V19.8872V19.9302V19.9779V20.0257V20.0734V20.1212V20.169V20.2119V20.2597V20.3075V20.3552V20.403V20.4507V20.4985V20.5414V20.5892V20.637V20.6848V20.7325V20.7803V20.828V20.871V20.9187V20.9665V21.0143V21.062V21.1097V21.1527V21.2005V21.2482V21.296L9.57661 21.3246Z" fill="white"/>
<path d="M8.02422 10.4281H10.1163V8.83429H8.02422V5.58061H10.1996V3.98684H6.24768V15.4893H10.2326V13.8954H8.02422V10.4281Z" fill="white"/>
<path d="M23.0088 10.7731V13.3694C23.0088 13.8296 22.7929 14.043 22.3448 14.043H22.0125C21.5477 14.043 21.3317 13.8296 21.3317 13.3694V6.10624C21.3317 5.64614 21.5477 5.43266 22.0125 5.43266H22.3114C22.7598 5.43266 22.9757 5.64614 22.9757 6.10624V8.35765H24.7189V6.00764C24.7189 4.5782 24.0215 3.888 22.5773 3.888H21.7137C20.2694 3.888 19.5552 4.5945 19.5552 6.02421V13.4514C19.5552 14.8812 20.2694 15.5876 21.7137 15.5876H22.5938C24.0384 15.5876 24.7522 14.8812 24.7522 13.4514V10.7731H23.0088Z" fill="white"/>
<path d="M16.8396 15.4894H18.6164V3.98694H16.8396V15.4894Z" fill="white"/>
<path d="M14.2615 9.09692C14.2615 9.55706 14.0459 9.77081 13.5975 9.77081H12.8668V5.53121H13.5975C14.0459 5.53121 14.2615 5.74475 14.2615 6.20479V9.09692ZM13.8796 3.98656H11.0902V15.489H12.8668V11.3151H13.8796C15.3242 11.3151 16.0381 10.6087 16.0381 9.17926V6.12276C16.0381 4.69305 15.3242 3.98656 13.8796 3.98656Z" fill="white"/>
<path fill-rule="evenodd" clip-rule="evenodd" d="M10.4388 25.8897H20.6092L15.4181 27.5757L10.4388 25.8897Z" fill="white"/>
</g>
<defs>
<clipPath id="clip0">
<rect width="30" height="30" fill="white" transform="translate(0.5)"/>
</clipPath>
</defs>
</svg>
