<svg width="25" height="24" viewBox="0 0 25 24" fill="none" xmlns="http://www.w3.org/2000/svg">
<g clip-path="url(#clip0)">
<path d="M1.00382 15.4517C2.48636 20.3969 7.07241 24 12.5001 24C19.1274 24 24.5001 18.6273 24.5001 12C24.5001 5.3726 19.1274 0 12.5001 0C6.14054 0 0.936866 4.94719 0.525879 11.2027C1.30244 12.5068 1.60547 13.3133 1.00393 15.4517H1.00382Z" fill="url(#paint0_linear)"/>
<path d="M11.8819 8.99455C11.8819 9.01474 11.8819 9.03493 11.8829 9.05388L8.9465 13.3195C8.47082 13.2979 7.9935 13.3813 7.5409 13.5677C7.34138 13.6491 7.15443 13.749 6.97901 13.8644L0.531049 11.21C0.531099 11.21 0.381847 13.6646 1.00363 15.4939L5.56198 17.3748C5.79086 18.3976 6.49252 19.2948 7.52772 19.7264C9.22142 20.434 11.1743 19.6275 11.8788 17.9331C12.0622 17.4901 12.1477 17.0256 12.1353 16.5621L16.3369 13.5595C16.3708 13.5605 16.4059 13.5616 16.4399 13.5616C18.9542 13.5616 20.9978 11.5118 20.9978 8.99455C20.9978 6.47713 18.9542 4.4292 16.4399 4.4292C13.9265 4.4292 11.8819 6.47713 11.8819 8.99455ZM11.1774 17.6385C10.6321 18.9477 9.12758 19.5688 7.81984 19.0239C7.21654 18.7725 6.76106 18.3121 6.49829 17.7631L7.98207 18.378C8.9465 18.7798 10.053 18.3224 10.4539 17.3583C10.856 16.3931 10.3998 15.2848 9.43587 14.8831L7.90203 14.2476C8.4939 14.023 9.16672 14.0148 9.79536 14.2764C10.4291 14.5401 10.9209 15.0366 11.1815 15.6711C11.4421 16.3056 11.4411 17.006 11.1774 17.6385ZM16.4399 12.0371C14.766 12.0371 13.4033 10.6723 13.4033 8.99455C13.4033 7.31816 14.766 5.95294 16.4399 5.95294C18.1147 5.95294 19.4775 7.31816 19.4775 8.99455C19.4775 10.6723 18.1147 12.0371 16.4399 12.0371ZM14.1645 8.98992C14.1645 7.72781 15.1863 6.70415 16.445 6.70415C17.7047 6.70415 18.7265 7.72781 18.7265 8.98992C18.7265 10.2521 17.7047 11.2749 16.445 11.2749C15.1863 11.2749 14.1645 10.2521 14.1645 8.98992Z" fill="white"/>
</g>
<defs>
<linearGradient id="paint0_linear" x1="12.513" y1="0" x2="12.513" y2="24" gradientUnits="userSpaceOnUse">
<stop stop-color="#111D2E"/>
<stop offset="0.21248" stop-color="#051839"/>
<stop offset="0.40695" stop-color="#0A1B48"/>
<stop offset="0.5811" stop-color="#132E62"/>
<stop offset="0.7376" stop-color="#144B7E"/>
<stop offset="0.87279" stop-color="#136497"/>
<stop offset="1" stop-color="#1387B8"/>
</linearGradient>
<clipPath id="clip0">
<rect width="24" height="24" fill="white" transform="translate(0.5)"/>
</clipPath>
</defs>
</svg>
