<svg width="49" height="16" viewBox="0 0 49 16" fill="none" xmlns="http://www.w3.org/2000/svg">
<g style="mix-blend-mode:luminosity" opacity="0.5" clip-path="url(#clip0)">
<path d="M7.65783 7.15837H4.71046V8.00006H7.65783V11.3689H3.02625L1.34204 9.68469V0.842163H4.71046V3.78953H7.65783V7.15837Z" fill="white"/>
<path d="M20.2895 11.3689H10.1842L8.5 9.68465V3.78949H11.8684V8.00002H12.7105V3.78949H16.0789V8.00002H16.9211V3.78949H20.2895V11.3689Z" fill="white"/>
<path d="M24.5 3.78949H21.1316V11.3684H24.5V3.78949Z" fill="white"/>
<path d="M24.5 0.842163H21.1316V2.94743H24.5V0.842163Z" fill="white"/>
<path d="M31.6577 7.15837H28.7104V8.00006H31.6577V11.3689H27.0262L25.342 9.68469V0.842163H28.7104V3.78953H31.6577V7.15837Z" fill="white"/>
<path d="M39.2368 7.15833H35.8684V8.00002H39.2368V11.3689H34.1842L32.5 9.68465V5.47412L34.1842 3.78949H39.2368V7.15833Z" fill="white"/>
<path d="M47.6578 11.3689H44.2894V7.15837H43.4473V11.3689H40.0789V0.842163H43.4473V3.78953H45.9736L47.6578 5.47416V11.3689Z" fill="white"/>
<path d="M46.3947 2.94737H44.2895V0H39.6667L37.5408 2.94737H33.7632L32.5 4.21053V2.94737H29.5526V0H20.2895V2.94737H7.25789L5.13158 0H0.5V10.1053L6.39474 16H12.2895V14.3158L13.9737 16H25.3421V14.3158L27.0263 16H32.5V14.3158L34.1842 16H44.7105L48.5 12.2105V5.05263L46.3947 2.94737ZM7.6579 7.1579H4.71053V8H7.6579V11.3684H3.02632L1.34211 9.68421V0.842105H4.71053V3.78947H7.6579V7.1579ZM20.2895 11.3684H10.1842L8.5 9.68421V3.78947H11.8684V8H12.7105V3.78947H16.0789V8H16.9211V3.78947H20.2895V11.3684ZM24.5 11.3684H21.1316V3.78947H24.5V11.3684ZM24.5 2.94737H21.1316V0.842105H24.5V2.94737ZM31.6579 7.1579H28.7105V8H31.6579V11.3684H27.0263L25.3421 9.68421V0.842105H28.7105V3.78947H31.6579V7.1579ZM39.2368 7.1579H35.8684V8H39.2368V11.3684H34.1842L32.5 9.68421V5.47368L34.1842 3.78947H39.2368V7.1579ZM47.6579 11.3684H44.2895V7.1579H43.4474V11.3684H40.0789V0.842105H43.4474V3.78947H45.9737L47.6579 5.47368V11.3684Z" fill="#9146FF"/>
</g>
<defs>
<clipPath id="clip0">
<rect width="48" height="16" fill="white" transform="translate(0.5)"/>
</clipPath>
</defs>
</svg>
