<svg width="25" height="24" viewBox="0 0 25 24" fill="none" xmlns="http://www.w3.org/2000/svg">
<g style="mix-blend-mode:luminosity" opacity="0.5" clip-path="url(#clip0)">
<path fill-rule="evenodd" clip-rule="evenodd" d="M13.3892 6.94702L13.374 20.9084L9.6333 19.6919V3.28156L14.408 4.54393C17.4644 5.36536 19.3348 6.9621 19.3044 9.76052C19.274 13.0153 17.7686 14.3231 14.8338 13.4714V7.05327C14.8338 6.27759 13.3892 6.23217 13.3892 6.94702Z" fill="#DE0029"/>
<path fill-rule="evenodd" clip-rule="evenodd" d="M7.91481 16.9845L6.15085 17.5777C5.01023 17.9733 4.03717 17.0456 5.08638 16.6651L5.93787 16.3612L2.72932 15.342C1.74085 15.6767 0.813214 16.3915 0.874186 17.3953C0.935017 18.4142 3.26149 18.6577 5.05598 18.9467C6.72858 19.2203 8.24922 19.0682 9.63316 18.5815V17.532L7.91481 16.9845ZM13.4043 20.9085L16.6736 19.7678L13.3739 18.7185V20.8323L13.4043 20.9085Z" fill="#F3C202"/>
<path fill-rule="evenodd" clip-rule="evenodd" d="M22.1025 17.8516L22.1633 17.8363C23.5927 17.3346 24.2009 16.6347 24.049 15.981C23.8057 14.886 22.0569 14.2927 19.3653 14.095C17.4342 13.9582 15.5334 14.3839 13.6782 15.0226L13.3741 15.1292L16.7043 16.1634L18.6507 15.5093C20.6883 15.1292 21.5096 15.7983 19.5479 16.4219L18.5746 16.7563L22.1025 17.8516ZM9.63337 13.0153L8.1582 13.517L9.63337 13.9733V13.0153Z" fill="#326DB3"/>
<path fill-rule="evenodd" clip-rule="evenodd" d="M16.6735 19.7678L22.1022 17.8517L18.5743 16.7564L13.3738 18.5358V18.7186L16.6735 19.7678ZM9.63308 16.4066L7.91474 16.9846L9.63308 17.5321V16.4066ZM13.3738 17.3042V15.1293L16.704 16.1635L13.3738 17.3042ZM5.9378 16.3612L9.63304 15.0381V13.9735L8.15792 13.5172L2.80525 15.327C2.79003 15.327 2.75964 15.342 2.72925 15.342L5.9378 16.3612Z" fill="#00AA9E"/>
</g>
<defs>
<clipPath id="clip0">
<rect width="24" height="24" fill="white" transform="translate(0.5)"/>
</clipPath>
</defs>
</svg>
