<svg width="16" height="16" viewBox="0 0 16 16" fill="none" xmlns="http://www.w3.org/2000/svg">
<path fill-rule="evenodd" clip-rule="evenodd" d="M8 15.3333C8 15.3333 14 11.3333 14 6.66666C14 5.07536 13.3679 3.54923 12.2426 2.42402C11.1174 1.2988 9.5913 0.666656 8 0.666656C6.4087 0.666656 4.88258 1.2988 3.75736 2.42402C2.63214 3.54923 2 5.07536 2 6.66666C2 11.3333 8 15.3333 8 15.3333ZM10 6.66666C10 7.77123 9.10457 8.66666 8 8.66666C6.89543 8.66666 6 7.77123 6 6.66666C6 5.56209 6.89543 4.66666 8 4.66666C9.10457 4.66666 10 5.56209 10 6.66666Z" fill="#F5F7FA"/>
</svg>
