<svg width="16" height="16" viewBox="0 0 16 16" fill="none" xmlns="http://www.w3.org/2000/svg">
<path d="M14.6666 11.28V13.28C14.6674 13.4656 14.6294 13.6494 14.555 13.8195C14.4806 13.9896 14.3715 14.1423 14.2347 14.2679C14.0979 14.3934 13.9364 14.4889 13.7605 14.5484C13.5846 14.6079 13.3982 14.63 13.2133 14.6133C11.1619 14.3904 9.19131 13.6894 7.45998 12.5666C5.84919 11.5431 4.48353 10.1774 3.45998 8.56662C2.33329 6.82742 1.63214 4.84728 1.41331 2.78662C1.39665 2.60226 1.41856 2.41646 1.47764 2.24104C1.53673 2.06561 1.63169 1.90441 1.75649 1.7677C1.88128 1.63099 2.03318 1.52176 2.2025 1.44697C2.37183 1.37218 2.55487 1.33346 2.73998 1.33329H4.73998C5.06351 1.3301 5.37717 1.44467 5.62248 1.65564C5.8678 1.86661 6.02803 2.15958 6.07331 2.47995C6.15772 3.12 6.31428 3.74844 6.53998 4.35329C6.62967 4.5919 6.64908 4.85123 6.59591 5.10054C6.54274 5.34985 6.41922 5.57869 6.23998 5.75995L5.39331 6.60662C6.34235 8.27565 7.72428 9.65758 9.39331 10.6066L10.24 9.75995C10.4212 9.58071 10.6501 9.45718 10.8994 9.40401C11.1487 9.35084 11.408 9.37026 11.6466 9.45995C12.2515 9.68565 12.8799 9.8422 13.52 9.92662C13.8438 9.97231 14.1396 10.1354 14.351 10.3849C14.5624 10.6345 14.6748 10.953 14.6666 11.28Z" fill="#F5F7FA"/>
</svg>
