<svg width="16" height="16" viewBox="0 0 16 16" fill="none" xmlns="http://www.w3.org/2000/svg">
    <linearGradient id="gradient" gradientUnits="userSpaceOnUse"  gradientTransform="rotate(95)">
        <stop offset="0" stop-color="#E255F2"/>
        <!-- Colors to transition from -->
        <stop offset="1" stop-color="#3D97F2"/>
    </linearGradient>
<g clip-path="url(#clip0)">
<path d="M15.646 3.95278L15.666 4.08344C15.4727 3.39744 14.9507 2.86811 14.2873 2.67544L14.2733 2.67211C13.026 2.33344 8.00667 2.33344 8.00667 2.33344C8.00667 2.33344 3 2.32678 1.74 2.67211C1.064 2.86811 0.541331 3.39744 0.351331 4.06944L0.347998 4.08344C-0.118002 6.51744 -0.121336 9.44211 0.368665 12.0481L0.347998 11.9161C0.541331 12.6021 1.06333 13.1314 1.72666 13.3241L1.74066 13.3274C2.98667 13.6668 8.00733 13.6668 8.00733 13.6668C8.00733 13.6668 13.0133 13.6668 14.274 13.3274C14.9507 13.1314 15.4733 12.6021 15.6633 11.9301L15.6667 11.9161C15.8787 10.7841 16 9.48144 16 8.15078C16 8.10211 16 8.05278 15.9993 8.00344C16 7.95811 16 7.90411 16 7.85011C16 6.51878 15.8787 5.21611 15.646 3.95278ZM6.40533 10.4341V5.57211L10.5827 8.00678L6.40533 10.4341Z" fill="url(#gradient)"/>
</g>
<defs>
<clipPath id="clip0">
<rect width="16" height="16" fill="white"/>
</clipPath>
</defs>
</svg>
