<svg width="16" height="16" viewBox="0 0 16 16" fill="none" xmlns="http://www.w3.org/2000/svg">
<g clip-path="url(#clip0)">
<path d="M2.38669 14.1307H11.8927L11.4387 12.6607L12.5247 13.5927L13.52 14.4847L15.3334 16V1.65C15.288 0.758 14.52 0 13.568 0L2.39002 0.002C1.43869 0.002 0.666687 0.761333 0.666687 1.65333V12.48C0.666687 13.4207 1.43735 14.1307 2.38669 14.1307ZM9.41869 3.78867L9.39669 3.79667L9.40469 3.78867H9.41869ZM4.33135 4.63467C5.55335 3.74533 6.68602 3.788 6.68602 3.788L6.77735 3.878C5.28202 4.23467 4.60402 4.90267 4.60402 4.90267C4.60402 4.90267 4.78535 4.814 5.10202 4.67867C7.11602 3.88667 9.31535 3.944 11.3514 4.94667C11.3514 4.94667 10.672 4.322 9.26869 3.922L9.39269 3.8C9.58669 3.80067 10.6134 3.83667 11.712 4.64C11.712 4.64 12.9414 6.74 12.9414 9.32C12.9007 9.27067 12.1787 10.4307 10.3207 10.4707C10.3207 10.4707 10.006 10.1147 9.78202 9.804C10.8687 9.492 11.2754 8.868 11.2754 8.868C10.9187 9.09267 10.5934 9.226 10.3294 9.35933C9.92335 9.538 9.51669 9.626 9.11069 9.716C7.18802 10.028 6.10869 9.506 5.08869 9.092L4.74002 8.91467C4.74002 8.91467 5.14602 9.53867 6.18935 9.85067C5.91535 10.1633 5.64402 10.5187 5.64402 10.5187C3.78669 10.4747 3.10935 9.31467 3.10935 9.31467C3.10935 6.73067 4.33135 4.63467 4.33135 4.63467Z" fill="#F5F7FA"/>
<path d="M9.53869 8.51398C10.0127 8.51398 10.3987 8.11398 10.3987 7.62065C10.3987 7.13065 10.0147 6.73065 9.53869 6.73065V6.73265C9.06669 6.73265 8.68003 7.13132 8.6787 7.62465C8.6787 8.11398 9.06469 8.51398 9.53869 8.51398Z" fill="#F5F7FA"/>
<path d="M6.46003 8.51398C6.93403 8.51398 7.32003 8.11398 7.32003 7.62065C7.32003 7.13065 6.9367 6.73065 6.4627 6.73065L6.46003 6.73265C5.98603 6.73265 5.60004 7.13132 5.60004 7.62465C5.60004 8.11398 5.98603 8.51398 6.46003 8.51398Z" fill="#F5F7FA"/>
</g>
<defs>
<clipPath id="clip0">
<rect width="16" height="16" fill="white"/>
</clipPath>
</defs>
</svg>
