<svg width="31" height="30" viewBox="0 0 31 30" fill="none" xmlns="http://www.w3.org/2000/svg">
<g style="mix-blend-mode:luminosity" opacity="0.5">
<path d="M10.3833 2.28708C8.78 2.57374 7.49 3.76041 7.08334 5.32041C6.93667 5.88374 6.92667 6.21374 6.94334 10.5837C6.95334 14.5971 6.95667 14.6904 7.02334 15.0004C7.39334 16.6704 8.58 17.8604 10.2667 18.2537C10.4867 18.3037 10.7667 18.3137 12.57 18.3237C14.4367 18.3371 14.63 18.3337 14.68 18.2837C14.73 18.2337 14.7333 17.5904 14.7333 10.2971C14.7333 4.89041 14.7233 2.34374 14.7 2.29708C14.6667 2.23708 14.61 2.23374 12.6567 2.23708C11.07 2.24041 10.5933 2.25041 10.3833 2.28708ZM13.4 10.2871V17.0404L12.0433 17.0237C10.7933 17.0104 10.66 17.0037 10.41 16.9404C9.33667 16.6637 8.54 15.8371 8.31667 14.7604C8.24334 14.4237 8.24334 6.13041 8.31334 5.80041C8.51334 4.86374 9.16334 4.08708 10.04 3.73708C10.48 3.56041 10.6833 3.54041 12.11 3.53708L13.4 3.53374V10.2871Z" fill="#F5F7FA"/>
<path d="M10.67 5.57004C10.46 5.61004 10.14 5.77004 9.97005 5.92004C9.62004 6.22337 9.44671 6.65337 9.47338 7.16004C9.48671 7.42337 9.50338 7.49337 9.61004 7.7067C9.76671 8.03004 10.0034 8.2667 10.3267 8.4267C10.55 8.5367 10.6067 8.55004 10.8967 8.56004C11.1601 8.57004 11.2534 8.56004 11.4301 8.50004C12.1534 8.2567 12.5901 7.55337 12.4667 6.83337C12.3234 5.9767 11.5101 5.40337 10.67 5.57004Z" fill="#F5F7FA"/>
<path d="M16.3567 2.25673C16.3434 2.26673 16.3334 5.88006 16.3334 10.2867C16.3334 17.5567 16.3367 18.2934 16.3867 18.3134C16.4767 18.3467 19.0634 18.3334 19.3834 18.3001C20.7368 18.1467 21.9301 17.3234 22.5801 16.1001C22.6635 15.9434 22.7735 15.6801 22.8302 15.5167C23.0402 14.8901 23.0335 15.0567 23.0335 10.2667C23.0335 6.44339 23.0268 5.87339 22.9802 5.63006C22.6501 3.8934 21.3268 2.5834 19.5868 2.2834C19.3534 2.24339 18.9934 2.23339 17.8334 2.23339C17.0334 2.23339 16.3667 2.24339 16.3567 2.25673ZM19.9168 9.51673C20.4368 9.65339 20.8635 10.0501 21.0368 10.5567C21.1468 10.8701 21.1435 11.3301 21.0335 11.6167C20.8301 12.1434 20.4301 12.5134 19.9168 12.6501C19.0834 12.8667 18.1967 12.3634 17.9534 11.5367C17.8801 11.2834 17.8834 10.8567 17.9667 10.5967C18.2167 9.78006 19.0834 9.30006 19.9168 9.51673Z" fill="#F5F7FA"/>
<path d="M25.4767 20.7468C24.96 20.9168 24.6534 21.4135 24.74 21.9535C24.7934 22.3001 24.9934 22.5735 25.3 22.7301C25.7167 22.9368 26.1601 22.8835 26.4934 22.5835C26.7434 22.3568 26.8501 22.1201 26.8501 21.7835C26.8501 21.4668 26.7567 21.2301 26.5467 21.0201C26.2834 20.7568 25.8101 20.6368 25.4767 20.7468ZM26.0667 21.2335C26.2667 21.3368 26.3767 21.5035 26.3934 21.7301C26.4134 22.0268 26.2867 22.2401 26.0234 22.3501C25.5767 22.5368 25.07 22.1068 25.1967 21.6435C25.25 21.4368 25.34 21.3201 25.5067 21.2368C25.6867 21.1501 25.8967 21.1468 26.0667 21.2335Z" fill="#F5F7FA"/>
<path d="M3.1333 21.7838V22.8038L3.3433 22.7938L3.54997 22.7838L3.56663 22.1404L3.5833 21.4971L4.06663 22.1471L4.54997 22.8004L4.74997 22.7938L4.94997 22.7838V21.7838V20.7838L4.7433 20.7738L4.5333 20.7638V21.4205V22.0804L4.0433 21.4238L3.54997 20.7671H3.3433H3.1333V21.7838Z" fill="#F5F7FA"/>
<path d="M6.46655 21.7834V22.8001H6.68322H6.89988V21.7834V20.7668H6.68322H6.46655V21.7834Z" fill="#F5F7FA"/>
<path d="M8.41665 20.8104C8.40665 20.8337 8.40331 21.2871 8.40665 21.8171L8.41665 22.7838L8.62665 22.7938L8.83332 22.8038V22.1304V21.4537L9.33332 22.1271L9.83332 22.8004H10.0333H10.2333V21.7837V20.7671H10.0167H9.79999L9.79332 21.4071L9.78332 22.0471L9.30332 21.4071L8.82665 20.7671H8.62998C8.49998 20.7671 8.42665 20.7804 8.41665 20.8104Z" fill="#F5F7FA"/>
<path d="M11.6568 20.7901C11.6434 20.8001 11.6334 20.9001 11.6334 21.0068V21.2001H11.9668H12.3001V22.0001V22.8001H12.5168H12.7334V22.0001V21.2001H13.0501H13.3668V20.9834V20.7668H12.5234C12.0568 20.7668 11.6668 20.7768 11.6568 20.7901Z" fill="#F5F7FA"/>
<path d="M14.8334 21.7834V22.8001H15.6167H16.4001V22.6001V22.4001H15.8167H15.2334V22.1668V21.9334H15.7667H16.3001V21.7501V21.5668H15.7667H15.2334V21.3668V21.1668L15.8101 21.1601L16.3834 21.1501L16.3934 20.9568L16.4034 20.7668H15.6167H14.8334V21.7834Z" fill="#F5F7FA"/>
<path d="M18.0501 20.8104C18.0401 20.8337 18.0367 21.2871 18.0401 21.8171L18.0501 22.7838L18.2601 22.7938L18.4668 22.8038V22.1271V21.4537L18.9668 22.1271L19.4668 22.8004H19.6668H19.8668V21.7837V20.7671H19.6501H19.4335L19.4268 21.4071L19.4168 22.0471L18.9368 21.4071L18.4601 20.7671H18.2634C18.1334 20.7671 18.0601 20.7804 18.0501 20.8104Z" fill="#F5F7FA"/>
<path d="M21.5667 21.7801V22.8001H22.01C22.5233 22.8001 22.7667 22.7501 22.9867 22.5968C23.6367 22.1501 23.5367 21.1935 22.8067 20.8568C22.67 20.7935 22.5767 20.7835 22.11 20.7735L21.5667 20.7601V21.7801ZM22.6567 21.2635C22.9367 21.3935 23.0567 21.7501 22.9167 22.0468C22.81 22.2668 22.5933 22.3668 22.2133 22.3668H21.9667V21.7835V21.2001H22.2433C22.44 21.2001 22.5567 21.2201 22.6567 21.2635Z" fill="#F5F7FA"/>
<path d="M20.5601 23.7035C20.0968 23.7635 19.6834 23.9802 19.3434 24.3435C18.6001 25.1435 18.6235 26.3602 19.4001 27.1335C19.6868 27.4235 19.9468 27.5735 20.3201 27.6668C20.9334 27.8235 21.5534 27.7002 22.0601 27.3168C22.2568 27.1702 22.5134 26.8835 22.4934 26.8335C22.4868 26.8202 22.3501 26.6968 22.1868 26.5535L21.8934 26.2968L21.8034 26.4135C21.3734 26.9768 20.5034 27.0368 20.0001 26.5335C19.9268 26.4602 19.8268 26.3235 19.7768 26.2268C19.6934 26.0668 19.6834 26.0168 19.6834 25.7168C19.6834 25.4302 19.6934 25.3602 19.7668 25.2168C20.0134 24.7068 20.6234 24.4302 21.1534 24.5835C21.4001 24.6535 21.6334 24.8002 21.7801 24.9768L21.8934 25.1135L22.0401 24.9935C22.1201 24.9302 22.2601 24.8068 22.3501 24.7268L22.5168 24.5768L22.3868 24.4168C21.9534 23.8902 21.2534 23.6168 20.5601 23.7035Z" fill="#F5F7FA"/>
<path d="M4.07338 23.8333C3.28004 24.0433 2.87004 24.5733 3.04671 25.1733C3.17338 25.6166 3.59338 25.8333 4.71004 26.0333C5.46004 26.1666 5.68004 26.2766 5.68004 26.5133C5.68004 26.6766 5.58338 26.7966 5.37338 26.8933C5.19338 26.9766 5.15338 26.9833 4.70004 26.9833C4.16338 26.9833 3.95338 26.94 3.55671 26.76C3.43338 26.7033 3.32671 26.6633 3.32004 26.67C3.28004 26.72 2.96338 27.31 2.97338 27.3166C3.00671 27.3533 3.54004 27.5466 3.76004 27.6066C4.12671 27.7033 4.91004 27.7267 5.31004 27.6533C6.05671 27.5133 6.42671 27.17 6.46004 26.5933C6.48671 26.1166 6.35338 25.87 5.94338 25.6566C5.65004 25.5033 5.39671 25.43 4.75004 25.3C4.18671 25.19 4.02671 25.1366 3.91004 25.0266C3.80671 24.93 3.80671 24.7566 3.91338 24.65C4.15338 24.41 5.01338 24.4 5.68004 24.6333C5.79004 24.67 5.89004 24.69 5.90338 24.6766C5.92671 24.65 6.16671 24.0866 6.16671 24.0533C6.16671 24.0233 5.65671 23.8733 5.37004 23.82C4.98338 23.7466 4.38338 23.7533 4.07338 23.8333Z" fill="#F5F7FA"/>
<path d="M6.91336 23.8569C6.92336 23.8903 7.15669 24.7203 7.43336 25.7003C7.71003 26.6803 7.94336 27.5102 7.95336 27.5402C7.97003 27.5936 8.02336 27.6002 8.43336 27.6002H8.8967L8.93337 27.4736C9.26337 26.2803 9.5967 25.1603 9.61337 25.2003C9.62337 25.2269 9.78004 25.7736 9.96004 26.4169L10.2867 27.5836L10.7534 27.5936L11.22 27.6036L11.75 25.7436C12.0401 24.7203 12.2834 23.8636 12.2934 23.8403C12.3034 23.8103 12.2101 23.8003 11.8867 23.8003H11.47L11.4234 23.9569C11.3967 24.0469 11.2367 24.6469 11.0667 25.2903C10.8934 25.9369 10.7467 26.4669 10.7334 26.4669C10.7234 26.4669 10.5667 25.9603 10.3867 25.3403C10.2067 24.7236 10.03 24.1236 9.99337 24.0069L9.93004 23.7969L9.59004 23.8069L9.25004 23.8169L8.86003 25.1503C8.6467 25.8836 8.47003 26.4903 8.4667 26.5003C8.46336 26.5103 8.31336 25.9703 8.1367 25.3003C7.9567 24.6303 7.79003 24.0203 7.77003 23.9403L7.73003 23.8003H7.31336C6.93002 23.8003 6.89669 23.8036 6.91336 23.8569Z" fill="#F5F7FA"/>
<path d="M13.2334 25.7V27.6H13.6667H14.1001L14.0934 25.7066L14.0834 23.8166L13.6601 23.8066L13.2334 23.7966V25.7Z" fill="#F5F7FA"/>
<path d="M15.0001 24.2166V24.6333H15.6001H16.2001V26.1166V27.6H16.6168H17.0335V26.1166V24.6333L17.6268 24.6266L18.2168 24.6166V24.2166V23.8166L16.6101 23.8066L15.0001 23.8V24.2166Z" fill="#F5F7FA"/>
<path d="M23.3667 25.7V27.6H23.7667H24.1667V26.85V26.1H25.05H25.9334V26.85V27.6H26.3334H26.7334L26.7267 25.7066L26.7167 23.8166L26.3267 23.8066L25.9334 23.7966V24.5499V25.3H25.05H24.1667V24.5499V23.7999H23.7667H23.3667V25.7Z" fill="#F5F7FA"/>
</g>
</svg>
