<svg width="25" height="24" viewBox="0 0 25 24" fill="none" xmlns="http://www.w3.org/2000/svg">
<g style="mix-blend-mode:luminosity" opacity="0.5" clip-path="url(#clip0)">
<path d="M11.3356 23.7026C9.52796 23.5294 7.69796 22.8803 6.12596 21.8546C4.80868 20.9955 4.51141 20.6418 4.51141 19.9368C4.51141 18.5205 6.06868 16.0395 8.73323 13.2119C10.246 11.6055 12.3537 9.7237 12.5814 9.77442C13.0249 9.87342 16.5676 13.3292 17.8941 14.9562C19.9914 17.5281 20.9552 19.6346 20.4654 20.5736C20.0931 21.2873 17.7826 22.6826 16.0854 23.2185C14.6863 23.6603 12.849 23.8474 11.3356 23.7026ZM2.73214 18.4643C1.63741 16.7849 1.08432 15.1316 0.817592 12.7403C0.729229 11.9508 0.76032 11.4994 1.0175 9.87833C1.33741 7.86015 2.4875 5.52288 3.87023 4.0856C4.45877 3.4747 4.51114 3.45833 5.22896 3.70106C6.09896 3.9956 7.02896 4.63815 8.47168 5.94288L9.31441 6.70488L8.8535 7.26942C6.71859 9.89033 4.46532 13.6076 3.61714 15.9067C3.15623 17.1558 2.97077 18.4103 3.16987 18.9326C3.3035 19.2855 3.18077 19.1541 2.73077 18.4652L2.73214 18.4643ZM21.9466 18.7499C22.0549 18.2219 21.918 17.2526 21.5975 16.2746C20.9034 14.1569 18.5828 10.2173 16.452 7.5386L15.781 6.69533L16.507 6.02906C17.4545 5.15906 18.1123 4.63815 18.8225 4.19551C19.3824 3.84642 20.1829 3.53742 20.527 3.53742C20.739 3.53742 21.486 4.3147 22.0887 5.16015C23.0225 6.46924 23.7092 8.05924 24.0572 9.71197C24.2822 10.7811 24.3011 13.0665 24.0935 14.1329C23.9217 15.0078 23.5617 16.1418 23.2126 16.9112C22.948 17.4874 22.2962 18.607 22.0099 18.9713C21.8626 19.1587 21.8626 19.1584 21.9444 18.7542L21.9466 18.7499ZM11.5292 3.1376C10.5458 2.63851 9.02887 2.1026 8.19105 1.95806C7.89759 1.9076 7.39659 1.87897 7.07832 1.89533C6.38668 1.93024 6.4175 1.89424 7.52641 1.37033C8.44823 0.934787 9.21732 0.678696 10.2619 0.459423C11.436 0.212605 13.6437 0.209877 14.7992 0.453423C16.047 0.716605 17.5167 1.26342 18.3447 1.77342L18.5912 1.92451L18.0267 1.89615C16.9041 1.83942 15.2683 2.29297 13.512 3.14715C12.9823 3.40515 12.522 3.61079 12.4881 3.60533C12.4546 3.59879 12.0229 3.38851 11.5281 3.1376H11.5292Z" fill="#107C10"/>
</g>
<defs>
<clipPath id="clip0">
<rect width="24" height="24" fill="white" transform="translate(0.5)"/>
</clipPath>
</defs>
</svg>
