<svg width="31" height="30" viewBox="0 0 31 30" fill="none" xmlns="http://www.w3.org/2000/svg">
<g style="mix-blend-mode:luminosity" opacity="0.5">
<path d="M5.75135 29.9043C5.54915 29.9683 5.32737 30 5.08602 30C4.80032 30 4.54289 29.9561 4.31372 29.8674C4.08411 29.7791 3.88799 29.6552 3.72536 29.496C3.56272 29.3364 3.43748 29.1455 3.35008 28.9228C3.26267 28.6993 3.21875 28.4545 3.21875 28.1871C3.21875 27.9161 3.26137 27.6691 3.34616 27.4465C3.43139 27.2234 3.55228 27.0325 3.70927 26.8729C3.86625 26.7133 4.05672 26.5903 4.2811 26.5028C4.50592 26.415 4.75684 26.3715 5.03428 26.3715C5.17473 26.3715 5.30519 26.382 5.42565 26.4024C5.5461 26.4228 5.65786 26.4524 5.76005 26.4915C5.86224 26.5302 5.95748 26.5776 6.04488 26.6324C6.13229 26.6881 6.21404 26.7507 6.29014 26.8194L6.1536 27.0377C6.13229 27.0708 6.10446 27.0917 6.07054 27.1008C6.03705 27.1099 5.99922 27.1021 5.95791 27.0773C5.91834 27.0543 5.87311 27.026 5.8218 26.9929C5.77049 26.9603 5.7083 26.9281 5.63481 26.8977C5.56132 26.8673 5.47478 26.8412 5.37477 26.8194C5.27475 26.7981 5.15647 26.7877 5.01949 26.7877C4.81946 26.7877 4.63899 26.8199 4.47679 26.8851C4.31502 26.9508 4.17717 27.0438 4.06324 27.1651C3.94931 27.2865 3.8619 27.4335 3.80059 27.6061C3.73971 27.7783 3.70927 27.9722 3.70927 28.1871C3.70927 28.4097 3.74101 28.6089 3.8045 28.785C3.86799 28.9607 3.95888 29.1107 4.07716 29.2333C4.195 29.3564 4.33851 29.4499 4.50679 29.5147C4.67508 29.5791 4.86425 29.6112 5.07385 29.6112C5.15647 29.6112 5.23387 29.606 5.30563 29.5964C5.37738 29.5864 5.44608 29.5725 5.51218 29.5551C5.57828 29.5377 5.64177 29.5164 5.70308 29.4912C5.76396 29.4651 5.82615 29.436 5.88877 29.4029V28.6202H5.3365C5.30519 28.6202 5.27953 28.6111 5.26084 28.5932C5.24214 28.575 5.23214 28.5528 5.23214 28.5258V28.2536H6.32232V29.616C6.14403 29.7447 5.95356 29.8408 5.75135 29.9043Z" fill="#F5F7FA"/>
<path d="M10.0399 28.187C10.0399 27.9692 10.0104 27.7735 9.95078 27.6C9.8912 27.4265 9.80727 27.2799 9.69812 27.1603C9.58897 27.0407 9.45721 26.9486 9.30197 26.8842C9.14673 26.8194 8.97322 26.7877 8.78188 26.7877C8.59185 26.7877 8.41921 26.8194 8.26397 26.8842C8.10916 26.9486 7.97653 27.0407 7.86651 27.1603C7.75693 27.2799 7.67213 27.4265 7.61255 27.6C7.55341 27.7735 7.52341 27.9692 7.52341 28.187C7.52341 28.4049 7.55341 28.6001 7.61255 28.7728C7.67213 28.9454 7.75693 29.0915 7.86651 29.2111C7.97653 29.3307 8.10916 29.4224 8.26397 29.4859C8.41921 29.5494 8.59185 29.5816 8.78188 29.5816C8.97322 29.5816 9.14673 29.5494 9.30197 29.4859C9.45721 29.4224 9.58897 29.3307 9.69812 29.2111C9.80727 29.0915 9.8912 28.9454 9.95078 28.7728C10.0104 28.6001 10.0399 28.4049 10.0399 28.187ZM10.5326 28.187C10.5326 28.4527 10.4909 28.6967 10.4065 28.9189C10.3226 29.1407 10.2034 29.332 10.0499 29.492C9.89598 29.6525 9.71204 29.7768 9.49635 29.8651C9.28066 29.9534 9.04236 29.9973 8.78188 29.9973C8.52097 29.9973 8.2831 29.9534 8.06828 29.8651C7.8539 29.7768 7.66952 29.6525 7.51602 29.492C7.36251 29.332 7.2438 29.1407 7.15943 28.9189C7.07551 28.6967 7.03333 28.4527 7.03333 28.187C7.03333 27.9209 7.07551 27.6774 7.15943 27.4547C7.2438 27.2329 7.36251 27.0416 7.51602 26.8803C7.66952 26.7194 7.8539 26.5941 8.06828 26.505C8.2831 26.4159 8.52097 26.3715 8.78188 26.3715C9.04236 26.3715 9.28066 26.4159 9.49635 26.505C9.71204 26.5941 9.89598 26.7194 10.0499 26.8803C10.2034 27.0416 10.3226 27.2329 10.4065 27.4547C10.4909 27.6774 10.5326 27.9209 10.5326 28.187Z" fill="#F5F7FA"/>
<path d="M13.7265 29.9043C13.5242 29.9683 13.3025 30 13.0611 30C12.7754 30 12.518 29.9561 12.2888 29.8674C12.0592 29.7791 11.8631 29.6552 11.7005 29.496C11.5378 29.3364 11.4126 29.1455 11.3252 28.9228C11.2378 28.6993 11.1938 28.4545 11.1938 28.1871C11.1938 27.9161 11.2365 27.6691 11.3213 27.4465C11.4065 27.2234 11.5274 27.0325 11.6844 26.8729C11.8413 26.7133 12.0318 26.5903 12.2562 26.5028C12.481 26.415 12.7319 26.3715 13.0094 26.3715C13.1498 26.3715 13.2803 26.382 13.4007 26.4024C13.5212 26.4228 13.633 26.4524 13.7351 26.4915C13.8373 26.5302 13.9326 26.5776 14.02 26.6324C14.1074 26.6881 14.1891 26.7507 14.2652 26.8194L14.1287 27.0377C14.1074 27.0708 14.0796 27.0917 14.0456 27.1008C14.0122 27.1099 13.9743 27.1021 13.933 27.0773C13.8934 27.0543 13.8482 27.026 13.7969 26.9929C13.7456 26.9603 13.6834 26.9281 13.6099 26.8977C13.5364 26.8673 13.4499 26.8412 13.3499 26.8194C13.2498 26.7981 13.1316 26.7877 12.9946 26.7877C12.7946 26.7877 12.6141 26.8199 12.4519 26.8851C12.2901 26.9508 12.1523 27.0438 12.0383 27.1651C11.9244 27.2865 11.837 27.4335 11.7757 27.6061C11.7148 27.7783 11.6844 27.9722 11.6844 28.1871C11.6844 28.4097 11.7161 28.6089 11.7796 28.785C11.8431 28.9607 11.934 29.1107 12.0523 29.2333C12.1701 29.3564 12.3136 29.4499 12.4819 29.5147C12.6502 29.5791 12.8393 29.6112 13.0489 29.6112C13.1316 29.6112 13.209 29.606 13.2807 29.5964C13.3525 29.5864 13.4212 29.5725 13.4873 29.5551C13.5534 29.5377 13.6169 29.5164 13.6782 29.4912C13.7391 29.4651 13.8012 29.436 13.8639 29.4029V28.6202H13.3116C13.2803 28.6202 13.2546 28.6111 13.2359 28.5932C13.2172 28.575 13.2077 28.5528 13.2077 28.5258V28.2536H14.2974V29.616C14.1191 29.7447 13.9287 29.8408 13.7265 29.9043Z" fill="#F5F7FA"/>
<path d="M15.1335 29.6877C15.1335 29.6451 15.1414 29.6047 15.157 29.5668C15.1727 29.5286 15.194 29.4955 15.2214 29.4677C15.2488 29.4394 15.2814 29.4172 15.3192 29.4007C15.3571 29.3842 15.3975 29.3759 15.4405 29.3759C15.4836 29.3759 15.524 29.3842 15.5619 29.4007C15.5997 29.4172 15.6328 29.4394 15.661 29.4677C15.6889 29.4955 15.7115 29.5286 15.728 29.5668C15.7441 29.6047 15.7528 29.6451 15.7528 29.6877C15.7528 29.7321 15.7441 29.7734 15.728 29.8103C15.7115 29.8477 15.6889 29.8803 15.661 29.9082C15.6328 29.9364 15.5997 29.9582 15.5619 29.9738C15.524 29.9895 15.4836 29.9973 15.4405 29.9973C15.3975 29.9973 15.3571 29.9895 15.3192 29.9738C15.2814 29.9582 15.2488 29.9364 15.2214 29.9082C15.194 29.8803 15.1727 29.8477 15.157 29.8103C15.1414 29.7734 15.1335 29.7321 15.1335 29.6877Z" fill="#F5F7FA"/>
<path d="M19.0543 29.2273C19.0809 29.2273 19.1039 29.2377 19.1235 29.2594L19.3144 29.4651C19.1691 29.6334 18.9926 29.7647 18.7856 29.8591C18.5782 29.953 18.3277 30 18.0337 30C17.7793 30 17.5484 29.9561 17.3401 29.8674C17.1323 29.7791 16.9548 29.6556 16.8078 29.496C16.6609 29.3364 16.5469 29.1455 16.4661 28.9229C16.3852 28.6994 16.3447 28.4545 16.3447 28.1871C16.3447 27.9192 16.3869 27.6744 16.4708 27.4513C16.5552 27.2287 16.6735 27.0369 16.8265 26.8769C16.9792 26.7164 17.1618 26.5925 17.3749 26.5038C17.588 26.4155 17.8232 26.3716 18.0811 26.3716C18.3333 26.3716 18.5564 26.412 18.7495 26.4929C18.9426 26.5738 19.113 26.6834 19.26 26.8221L19.1013 27.0426C19.0913 27.0591 19.0787 27.0726 19.063 27.0834C19.0469 27.0943 19.0261 27.0995 18.9995 27.0995C18.97 27.0995 18.9339 27.0834 18.8908 27.0513C18.8478 27.0195 18.7917 26.983 18.7221 26.9438C18.653 26.9038 18.5664 26.8682 18.4625 26.836C18.3586 26.8034 18.2303 26.7877 18.0785 26.7877C17.895 26.7877 17.7276 26.819 17.5758 26.883C17.4236 26.9465 17.2927 27.0386 17.1831 27.1591C17.0731 27.2796 16.9879 27.4265 16.9266 27.6C16.8657 27.7735 16.8348 27.9692 16.8348 28.1871C16.8348 28.408 16.867 28.6054 16.9305 28.7789C16.994 28.9524 17.0809 29.099 17.1905 29.2186C17.3001 29.3382 17.4297 29.4295 17.5793 29.4921C17.7289 29.5547 17.8902 29.5865 18.0633 29.5865C18.1694 29.5865 18.2646 29.5804 18.3499 29.5678C18.4347 29.5551 18.5129 29.536 18.5851 29.5095C18.6569 29.4834 18.7238 29.4495 18.7856 29.4095C18.8473 29.369 18.9086 29.3203 18.97 29.2642C18.9982 29.2394 19.0261 29.2273 19.0543 29.2273Z" fill="#F5F7FA"/>
<path d="M22.7531 28.187C22.7531 27.9692 22.7235 27.7735 22.6639 27.6C22.6043 27.4265 22.5204 27.2799 22.4113 27.1603C22.3021 27.0407 22.1704 26.9486 22.0151 26.8842C21.8599 26.8194 21.6864 26.7877 21.495 26.7877C21.305 26.7877 21.1323 26.8194 20.9771 26.8842C20.8223 26.9486 20.6897 27.0407 20.5796 27.1603C20.4701 27.2799 20.3853 27.4265 20.3257 27.6C20.2665 27.7735 20.2365 27.9692 20.2365 28.187C20.2365 28.4049 20.2665 28.6001 20.3257 28.7728C20.3853 28.9454 20.4701 29.0915 20.5796 29.2111C20.6897 29.3307 20.8223 29.4224 20.9771 29.4859C21.1323 29.5494 21.305 29.5816 21.495 29.5816C21.6864 29.5816 21.8599 29.5494 22.0151 29.4859C22.1704 29.4224 22.3021 29.3307 22.4113 29.2111C22.5204 29.0915 22.6043 28.9454 22.6639 28.7728C22.7235 28.6001 22.7531 28.4049 22.7531 28.187ZM23.2458 28.187C23.2458 28.4527 23.204 28.6967 23.1196 28.9189C23.0353 29.1407 22.9166 29.332 22.7631 29.492C22.6091 29.6525 22.4252 29.7768 22.2095 29.8651C21.9938 29.9534 21.7555 29.9973 21.495 29.9973C21.2341 29.9973 20.9962 29.9534 20.7814 29.8651C20.567 29.7768 20.3827 29.6525 20.2292 29.492C20.0756 29.332 19.9569 29.1407 19.8726 28.9189C19.7886 28.6967 19.7465 28.4527 19.7465 28.187C19.7465 27.9209 19.7886 27.6774 19.8726 27.4547C19.9569 27.2329 20.0756 27.0416 20.2292 26.8803C20.3827 26.7194 20.567 26.5941 20.7814 26.505C20.9962 26.4159 21.2341 26.3715 21.495 26.3715C21.7555 26.3715 21.9938 26.4159 22.2095 26.505C22.4252 26.5941 22.6091 26.7194 22.7631 26.8803C22.9166 27.0416 23.0353 27.2329 23.1196 27.4547C23.204 27.6774 23.2458 27.9209 23.2458 28.187Z" fill="#F5F7FA"/>
<path d="M25.9154 28.8026C25.9337 28.8461 25.9515 28.8896 25.9698 28.9322C25.9863 28.8878 26.0037 28.8435 26.022 28.8C26.0398 28.7565 26.0598 28.7143 26.0811 28.6752L27.2852 26.4926C27.3048 26.4548 27.3265 26.4318 27.3504 26.4235C27.3744 26.4152 27.4078 26.4113 27.4509 26.4113H27.8053V29.9602H27.3839V27.3524C27.3839 27.3176 27.3848 27.2806 27.3865 27.2406C27.3883 27.201 27.3909 27.161 27.3939 27.1193L26.1776 29.3388C26.1398 29.4127 26.082 29.4501 26.0046 29.4501H25.935C25.8576 29.4501 25.7997 29.4127 25.7619 29.3388L24.5187 27.1119C24.5234 27.1554 24.5269 27.1971 24.5295 27.238C24.5321 27.2797 24.5334 27.3176 24.5334 27.3524V29.9602H24.1121V26.4113H24.4665C24.5095 26.4113 24.5421 26.4152 24.5656 26.4235C24.5887 26.4318 24.6108 26.4548 24.6322 26.4926L25.8584 28.6774C25.878 28.7169 25.8972 28.7587 25.9154 28.8026Z" fill="#F5F7FA"/>
<path fill-rule="evenodd" clip-rule="evenodd" d="M10.5447 15.02H7.68942H7.68464C7.46025 15.02 7.28022 15.2022 7.28022 15.4266C7.28022 15.4266 7.28109 15.4266 7.28109 15.4292H7.28022V17.47H7.28109L7.28022 17.4717C7.28022 17.6952 7.46025 17.8792 7.68464 17.8792H7.68942H7.98512H10.5447V19.2407H6.97582V19.2372C6.39181 19.2372 5.91956 18.765 5.91956 18.1827V14.7126C5.91956 14.1333 6.39181 13.6611 6.97582 13.6611H10.5447V15.02Z" fill="#F5F7FA"/>
<path fill-rule="evenodd" clip-rule="evenodd" d="M11.5772 11.2305C11.5772 11.824 11.0976 12.3015 10.5066 12.3015H5.91626V10.9217H9.78213H9.78648C10.0143 10.9217 10.197 10.7356 10.197 10.509V10.5064V5.95131V5.94826C10.197 5.72083 10.0143 5.53645 9.78648 5.53645H9.78213H7.71091H7.70656C7.47913 5.53645 7.29606 5.72083 7.29606 5.94826V5.95131V8.02122V8.02383C7.29606 8.2517 7.47913 8.43651 7.70656 8.43651H7.71091H9.36815V9.81631H6.98644C6.39417 9.81631 5.91626 9.33797 5.91626 8.74613V5.2264C5.91626 4.635 6.39417 4.15579 6.98644 4.15579H10.5066C11.0976 4.15579 11.5772 4.635 11.5772 5.2264V11.2305Z" fill="#F5F7FA"/>
<path fill-rule="evenodd" clip-rule="evenodd" d="M25.1035 19.2372H23.7432V15.02H22.7918H22.7874C22.5626 15.02 22.3826 15.2022 22.3826 15.4266V15.4292V19.2372H21.0224V15.02H20.0687H20.0661C19.8408 15.02 19.6608 15.2022 19.6608 15.4266V15.4292V19.2407H18.301V14.7126C18.301 14.1333 18.772 13.6611 19.356 13.6611H25.1035V19.2372Z" fill="#F5F7FA"/>
<path fill-rule="evenodd" clip-rule="evenodd" d="M25.1074 11.2305C25.1074 11.824 24.6273 12.3015 24.0372 12.3015H19.4464V10.9217H23.314H23.3166C23.5454 10.9217 23.7289 10.7356 23.7289 10.509V10.5064V5.95131V5.94826C23.7289 5.72083 23.5454 5.53645 23.3166 5.53645H23.314H21.2411H21.2372C21.0119 5.53645 20.828 5.72083 20.828 5.94826V5.95131V8.02122V8.02383C20.828 8.2517 21.0119 8.43651 21.2372 8.43651H21.2411H22.8979V9.81631H20.5175C19.9252 9.81631 19.4464 9.33797 19.4464 8.74613V5.2264C19.4464 4.635 19.9252 4.15579 20.5175 4.15579H24.0372C24.6273 4.15579 25.1074 4.635 25.1074 5.2264V11.2305Z" fill="#F5F7FA"/>
<path fill-rule="evenodd" clip-rule="evenodd" d="M16.959 5.95135V8.02083V8.02344C16.959 8.2513 16.7803 8.43655 16.552 8.43655H16.5472H14.476H14.4729C14.2446 8.43655 14.062 8.2513 14.062 8.02344V8.02083V5.95135V5.94787C14.062 5.72044 14.2446 5.5365 14.4729 5.5365H14.476H16.5472H16.552C16.7803 5.5365 16.959 5.72044 16.959 5.94787V5.95135ZM17.2725 4.15584H13.7511C13.1597 4.15584 12.6818 4.63505 12.6818 5.22645V8.74617C12.6818 9.33757 13.1597 9.81635 13.7511 9.81635H17.2725C17.8622 9.81635 18.3423 9.33757 18.3423 8.74617V5.22645C18.3423 4.63505 17.8622 4.15584 17.2725 4.15584Z" fill="#F5F7FA"/>
<path fill-rule="evenodd" clip-rule="evenodd" d="M15.8517 15.429V17.4698C15.8517 17.6942 15.6716 17.8773 15.4481 17.8773C15.4459 17.8773 15.4455 17.8751 15.4433 17.8751V17.8773H13.403V17.8751C13.403 17.8751 13.4008 17.8773 13.3986 17.8773C13.1742 17.8773 12.9942 17.6942 12.9942 17.4698V15.429V15.4264C12.9942 15.202 13.1742 15.0198 13.3986 15.0198H13.403H15.4433H15.4481C15.6716 15.0198 15.8517 15.202 15.8517 15.4264V15.429ZM16.1574 13.6609H12.6889C12.1049 13.6609 11.6335 14.1331 11.6335 14.7124V18.1825C11.6335 18.7648 12.1049 19.2371 12.6889 19.2371H16.1574C16.7392 19.2371 17.2115 18.7648 17.2115 18.1825V14.7124C17.2115 14.1331 16.7392 13.6609 16.1574 13.6609Z" fill="#F5F7FA"/>
<path d="M27.2825 21.6076C27.2825 21.9581 27.1412 22.2729 26.9116 22.503C26.682 22.7322 26.3667 22.873 26.0171 22.873H5.007C4.65694 22.873 4.34211 22.7322 4.1125 22.503C3.8829 22.2729 3.74244 21.9581 3.74157 21.6076V1.78773C3.74244 1.43767 3.8829 1.12327 4.1125 0.893234C4.34211 0.664064 4.65694 0.52317 5.007 0.522736H26.0171C26.3667 0.52317 26.682 0.664064 26.9116 0.893234C27.1412 1.12327 27.2825 1.43767 27.2825 1.78773V21.6076ZM27.2808 0.523605C26.9581 0.200071 26.5102 3.8147e-05 26.0171 3.8147e-05H5.007C4.51388 3.8147e-05 4.06597 0.200071 3.74331 0.523605C3.41978 0.846268 3.21887 1.29504 3.21887 1.78773V21.6076C3.21887 22.1007 3.41978 22.5495 3.74331 22.8722C4.06597 23.1953 4.51388 23.3962 5.007 23.3962H26.0171C26.5102 23.3962 26.9581 23.1953 27.2808 22.8722C27.6043 22.5495 27.8052 22.1007 27.8052 21.6076V1.78773C27.8052 1.29504 27.6043 0.846268 27.2808 0.523605Z" fill="#F5F7FA"/>
</g>
</svg>
