<svg width="62" height="16" viewBox="0 0 62 16" fill="none" xmlns="http://www.w3.org/2000/svg">
<g style="mix-blend-mode:luminosity" opacity="0.5" clip-path="url(#clip0)">
<path d="M20.4941 14.004V5.70602H23.2347V14.004H20.4941ZM21.8808 5.03121C21.4185 5.03121 21.0608 4.91314 20.8077 4.67699C20.5655 4.4409 20.4445 4.12607 20.4445 3.7325C20.4445 3.36144 20.5655 3.04661 20.8077 2.788C21.0608 2.52939 21.4185 2.40009 21.8808 2.40009C22.3431 2.40009 22.6953 2.52939 22.9375 2.788C23.1907 3.04661 23.3172 3.36144 23.3172 3.7325C23.3172 4.12607 23.1907 4.4409 22.9375 4.67699C22.6954 4.91314 22.3432 5.03121 21.8809 5.03121H21.8808ZM27.3241 14.1729C26.5315 14.1729 25.9316 13.9593 25.5243 13.5319C25.1281 13.0935 24.93 12.4863 24.93 11.7104V7.78057H23.8403V5.70586H24.93V3.68191H27.6707V5.70602H29.4539V7.78033H27.6705V11.3054C27.6705 11.5641 27.72 11.7496 27.8191 11.862C27.9292 11.9633 28.0943 12.0139 28.3144 12.0139C28.6116 12.0139 28.9363 11.8789 29.2885 11.6091L29.916 13.4475C29.5969 13.6728 29.2337 13.8526 28.8264 13.9872C28.4191 14.1111 27.9183 14.173 27.3242 14.173L27.3241 14.1729ZM34.0651 14.1729C32.8103 14.1729 31.8197 13.8075 31.0932 13.0767C30.3778 12.3457 30.0201 11.2831 30.0201 9.88881C30.0201 8.87684 30.2237 8.02789 30.6309 7.34198C31.0492 6.63366 31.5723 6.15576 32.2 5.90831C32.8603 5.64969 33.4713 5.52039 34.0329 5.52039C34.7373 5.52039 35.3262 5.66656 35.7997 5.9589C36.2731 6.24003 36.6198 6.54926 36.8397 6.88658C37.0712 7.22385 37.2363 7.4881 37.3349 7.67931L35.4367 8.92743C35.2609 8.55637 35.0682 8.26401 34.8588 8.05033C34.6499 7.83671 34.3969 7.7299 34.0998 7.7299C33.6815 7.7299 33.3514 7.89853 33.1094 8.23581C32.8674 8.57318 32.7464 9.08483 32.7464 9.77074C32.7464 10.5128 32.8895 11.0582 33.1755 11.4067C33.4616 11.7553 33.8689 11.9297 34.3975 11.9297C34.8158 11.9297 35.1625 11.8508 35.4375 11.6932C35.7236 11.5356 35.9933 11.3331 36.2467 11.0859L37.1218 13.1771C36.8576 13.4018 36.4668 13.6267 35.9495 13.8519C35.4322 14.0654 34.8048 14.1721 34.0673 14.1721L34.0651 14.1729ZM38.0529 14.004V2.73733H40.8101V6.16126C41.0412 5.99257 41.3219 5.8464 41.6521 5.72275C41.9822 5.58779 42.3785 5.52031 42.8409 5.52031C43.8095 5.52031 44.5304 5.80155 45.0037 6.36402C45.488 6.9265 45.7302 7.71928 45.7302 8.74236V14.0049H42.973V9.07936C42.973 8.6075 42.885 8.2646 42.7092 8.05065C42.5334 7.82598 42.3022 7.71365 42.0156 7.71365C41.7736 7.71365 41.5479 7.76995 41.3385 7.88255C41.1296 7.99516 40.9535 8.11339 40.8102 8.23725V14.0057H38.053L38.0529 14.004ZM47.8472 14.1729C47.4068 14.1729 47.0601 14.0436 46.807 13.785C46.5538 13.5264 46.4273 13.1947 46.4273 12.7899C46.4273 12.3851 46.5538 12.0478 46.807 11.778C47.0601 11.5081 47.4068 11.3732 47.847 11.3732C48.2654 11.3732 48.6011 11.5081 48.8543 11.778C49.1078 12.0478 49.2345 12.3852 49.2345 12.7899C49.2345 13.1948 49.108 13.5265 48.855 13.785C48.6131 14.0436 48.2774 14.1729 47.8481 14.1729H47.8472ZM49.8745 14.004V5.70602H52.6152V14.004H49.8745ZM51.261 5.03282C50.7986 5.03282 50.4408 4.91475 50.1877 4.6786C49.9456 4.44246 49.8245 4.12763 49.8245 3.73411C49.8245 3.36305 49.9456 3.04822 50.1877 2.78961C50.4409 2.531 50.7986 2.40169 51.2609 2.40169C51.7232 2.40169 52.0754 2.531 52.3176 2.78961C52.5708 3.04822 52.6973 3.36305 52.6973 3.73411C52.6973 4.12768 52.5708 4.44251 52.3176 4.6786C52.0755 4.91475 51.7233 5.03282 51.261 5.03282ZM57.4549 14.1729C56.8164 14.1729 56.2495 14.0661 55.7543 13.8525C55.2589 13.6276 54.8352 13.324 54.483 12.9417C54.1418 12.5481 53.8776 12.0871 53.6905 11.5586C53.5144 11.0189 53.4263 10.4342 53.4263 9.80444C53.4263 8.87123 53.6245 8.05604 54.0207 7.35887C54.4279 6.67296 54.9342 6.19507 55.5396 5.9252C56.156 5.65532 56.7944 5.52039 57.4548 5.52039C58.4012 5.52039 59.1824 5.74527 59.7987 6.19504C60.4259 6.64481 60.8663 7.20702 61.1198 7.88167C61.3728 8.55632 61.4993 9.19725 61.4993 9.80444C61.4993 10.4341 61.4056 11.0188 61.2182 11.5586C61.0424 12.0871 60.7781 12.5481 60.4254 12.9416C60.0842 13.3239 59.6603 13.6277 59.1538 13.8529C58.6586 14.0669 58.0917 14.1738 57.4532 14.1738L57.4549 14.1729ZM57.4549 12.014C57.9171 12.014 58.2528 11.8172 58.4619 11.4237C58.671 11.0188 58.7756 10.4791 58.7756 9.8046C58.7756 9.16363 58.6655 8.65198 58.4454 8.26967C58.2255 7.88735 57.8953 7.6962 57.455 7.6962C57.0256 7.6962 56.701 7.88735 56.481 8.26967C56.2611 8.65198 56.1511 9.1636 56.1511 9.80452C56.1511 10.4792 56.2559 11.0189 56.4653 11.4236C56.6857 11.8172 57.0159 12.014 57.4557 12.014L57.4549 12.014Z" fill="#F5F7FA"/>
<path d="M2.76981 0.0988124C2.01052 0.559356 0.514451 2.31523 0.500122 2.77569V3.53801C0.500122 4.5043 1.38428 5.35349 2.18688 5.35349C3.15056 5.35349 3.95362 4.53744 3.95378 3.56898C3.95378 4.53736 4.72929 5.35349 5.69321 5.35349C6.65704 5.35349 7.40767 4.53744 7.40767 3.56898C7.40767 4.53736 8.232 5.35349 9.19568 5.35349H9.213C10.1767 5.35349 11.0018 4.53744 11.0018 3.56898C11.0018 4.53736 11.7521 5.35349 12.7158 5.35349C13.6795 5.35349 14.455 4.53744 14.455 3.56898C14.455 4.53736 15.258 5.35349 16.2217 5.35349C17.024 5.35349 17.9082 4.50438 17.9082 3.53801V2.77569C17.8932 2.31523 16.3973 0.559356 15.6383 0.0988124C13.2787 0.0141192 11.6419 -0.000438642 9.20355 -0.000116921C6.76609 4.39396e-05 3.44123 0.0388918 2.76965 0.0988124H2.76981ZM7.39555 4.89841C7.30337 5.06251 7.18921 5.21265 7.05637 5.34448C6.6793 5.72228 6.17208 5.93371 5.64392 5.93323C5.09398 5.93323 4.59238 5.70802 4.22863 5.34432C4.09715 5.21241 3.99716 5.07134 3.90505 4.9071V4.90742C3.81372 5.07198 3.68538 5.21289 3.5539 5.34496C3.17585 5.72271 2.66791 5.93399 2.13909 5.93347C2.07295 5.93347 2.00445 5.91497 1.94855 5.89567C1.8714 6.72008 1.83833 7.50749 1.82699 8.08257V8.08578C1.82542 8.37775 1.82424 8.61743 1.82274 8.95041C1.8377 10.6805 1.65504 14.5564 2.56912 15.5087C3.98551 15.8465 6.59185 16.0001 9.20702 16.0009H9.20725C11.8223 16.0001 14.4288 15.8465 15.8451 15.5095C16.7592 14.557 16.5766 10.6811 16.5915 8.95162C16.5902 8.61863 16.5889 8.37879 16.5874 8.08699V8.08377C16.5755 7.50934 16.5429 6.72169 16.4653 5.89744C16.4094 5.91674 16.3404 5.93548 16.274 5.93548C15.7451 5.93599 15.237 5.72475 14.8588 5.34705C14.7269 5.21474 14.599 5.07383 14.5074 4.90951L14.507 4.90895C14.4151 5.07302 14.3151 5.21434 14.1832 5.34617C13.8195 5.70971 13.3179 5.93492 12.7681 5.93492C12.2184 5.93492 11.7194 5.70971 11.3557 5.34617C11.2229 5.21423 11.1087 5.06411 11.0164 4.9001C10.9253 5.06403 10.8122 5.21417 10.6805 5.34617C10.3022 5.72413 9.79399 5.93551 9.26488 5.93492C9.24567 5.93492 9.22631 5.93411 9.20741 5.93331H9.20678C9.18765 5.93411 9.16852 5.93492 9.14931 5.93492C8.59928 5.93492 8.09768 5.70971 7.73386 5.34617C7.60201 5.21425 7.48886 5.06417 7.39768 4.90026L7.39555 4.89841ZM5.942 6.81852L5.94184 6.81917H5.94342C6.51895 6.82045 7.03071 6.81917 7.66371 7.52559C8.16287 7.47226 8.68329 7.44548 9.20528 7.44636H9.20607C9.72806 7.44556 10.2485 7.4729 10.7476 7.52599C11.3814 6.81981 11.8924 6.82142 12.4679 6.81981H12.4695V6.81901C12.7419 6.81901 13.8292 6.81901 14.5874 8.99384L15.4021 11.9778C16.0056 14.1977 15.209 14.2524 14.2154 14.254C12.7415 14.1985 11.9259 13.1046 11.9259 12.0116C11.1102 12.1483 10.1583 12.2167 9.20686 12.2167H9.20646C8.25491 12.2167 7.30335 12.1483 6.48785 12.0116C6.48785 13.1046 5.67218 14.1977 4.19848 14.254C3.20488 14.2524 2.40811 14.1977 3.01175 11.9786L3.82584 8.99465C4.58403 6.81981 5.67211 6.81981 5.94373 6.81981L5.942 6.81852ZM9.20465 8.52767V8.52823C9.20332 8.5296 7.65348 9.9837 7.37492 10.5009L8.38978 10.4594V11.3634C8.38978 11.4058 8.79714 11.3886 9.20465 11.3694H9.2052C9.6128 11.3887 10.0201 11.4058 10.0201 11.3635V10.4594L11.0349 10.5008C10.7564 9.98362 9.2052 8.52823 9.2052 8.52823V8.52775L9.20505 8.52791L9.20465 8.52767Z" fill="#F5F7FA"/>
</g>
<defs>
<clipPath id="clip0">
<rect width="61" height="16" fill="white" transform="translate(0.5)"/>
</clipPath>
</defs>
</svg>
