<svg width="16" height="16" viewBox="0 0 16 16" fill="none" xmlns="http://www.w3.org/2000/svg">
<path fill-rule="evenodd" clip-rule="evenodd" d="M8.83949 15.4989C11.9434 15.5061 13.3804 15.5094 14.4397 14.4482C15.5042 13.3768 15.5028 11.9521 15.4997 8.6465C15.4995 8.44199 15.4993 8.23028 15.4993 8.01101C15.4993 5.57258 15.4894 5.28319 15.4461 4.31985C15.2717 0.459674 12.5998 0.484142 9.04688 0.516677C8.71391 0.519726 8.37321 0.522846 8.0261 0.522846L7.99189 0.5C5.59102 0.5 5.27811 0.511079 4.34413 0.544148L4.30051 0.545692C0.453247 0.743092 0.476539 3.28463 0.509909 6.92594C0.5131 7.27413 0.516383 7.63237 0.516383 7.99958C0.516383 8.4326 0.511887 8.84509 0.507605 9.23782C0.481145 11.6651 0.462913 13.3376 1.56542 14.4368C2.62516 15.5014 4.05903 15.5003 7.48043 15.4979C7.64954 15.4978 7.82351 15.4976 8.00253 15.4976C8.29434 15.4976 8.57306 15.4983 8.83949 15.4989ZM12.2707 4.68928C12.8005 4.68928 13.23 4.25977 13.23 3.72995C13.23 3.20012 12.8005 2.77062 12.2707 2.77062C11.7408 2.77062 11.3113 3.20012 11.3113 3.72995C11.3113 4.25977 11.7408 4.68928 12.2707 4.68928ZM8.00261 3.89202C5.73394 3.89202 3.89728 5.73068 3.89728 7.99735C3.89728 10.266 5.73594 12.1027 8.00261 12.1027C10.2713 12.1027 12.1079 10.264 12.1079 7.99735C12.1079 5.72868 10.2693 3.89202 8.00261 3.89202ZM8.00261 10.662C6.52994 10.662 5.33794 9.46935 5.33794 7.99735C5.33794 6.52535 6.53061 5.33268 8.00261 5.33268C9.47461 5.33268 10.6673 6.52535 10.6673 7.99735C10.6679 9.46935 9.47528 10.662 8.00261 10.662Z" fill="#F5F7FA"/>
</svg>
