<svg width="16" height="16" viewBox="0 0 16 16" fill="none" xmlns="http://www.w3.org/2000/svg">
<mask id="mask0" mask-type="alpha" maskUnits="userSpaceOnUse" x="1" y="2" width="14" height="12">
<path d="M2.66671 2.66669H13.3334C14.0667 2.66669 14.6667 3.26669 14.6667 4.00002V12C14.6667 12.7334 14.0667 13.3334 13.3334 13.3334H2.66671C1.93337 13.3334 1.33337 12.7334 1.33337 12V4.00002C1.33337 3.26669 1.93337 2.66669 2.66671 2.66669Z" fill="#818A99"/>
</mask>
<g mask="url(#mask0)">
<path fill-rule="evenodd" clip-rule="evenodd" d="M13.3333 2.66669H2.66665C2.19782 2.66669 1.78348 2.91192 1.54558 3.28045C1.24496 3.19173 0.908564 3.29894 0.718892 3.5699C0.481357 3.90924 0.563883 4.37689 0.90322 4.61442L1.33332 4.91549V12C1.33332 12.7334 1.93332 13.3334 2.66665 13.3334H13.3333C14.0667 13.3334 14.6666 12.7334 14.6666 12V4.91549L15.0967 4.61442C15.4361 4.37689 15.5186 3.90924 15.2811 3.5699C15.0914 3.29894 14.755 3.19173 14.4544 3.28045C14.2165 2.91192 13.8021 2.66669 13.3333 2.66669ZM14.4544 3.28045C14.3785 3.30284 14.3049 3.33771 14.2366 3.38558L7.99998 7.75117L1.76341 3.38558C1.69504 3.33771 1.62145 3.30284 1.54558 3.28045C1.41137 3.48837 1.33332 3.73552 1.33332 4.00002V4.91549L7.56989 9.28109C7.82813 9.46186 8.17184 9.46186 8.43008 9.28109L14.6666 4.91549V4.00002C14.6666 3.73552 14.5886 3.48837 14.4544 3.28045Z" fill="#818A99"/>
</g>
</svg>
