<svg width="16" height="16" viewBox="0 0 16 16" fill="none" xmlns="http://www.w3.org/2000/svg">
<g clip-path="url(#clip0)">
<path d="M11.9353 1.16675C9.70266 1.16675 7.88133 2.96408 7.86399 5.18008L5.32866 8.79808C4.62133 8.73408 4.01133 8.88008 3.47199 9.20741L-7.62939e-06 7.80941V11.6274L2.05333 12.4494C2.34999 13.8087 3.57199 14.8334 5.01799 14.8334C6.58999 14.8334 7.89266 13.6314 8.03599 12.1007L11.9393 9.26142C14.1787 9.26142 16 7.45408 16 5.21275L15.9993 5.21208C15.9993 2.98141 14.178 1.16675 11.9353 1.16675ZM3.04599 12.8474C3.40999 12.9861 3.77799 13.1387 4.14266 13.2814C5.05399 13.6547 6.08933 13.2101 6.45333 12.3027C6.82133 11.3954 6.37466 10.3714 5.46466 10.0081L4.53599 9.63475C5.91866 9.32808 7.24999 10.3641 7.25066 11.8047C7.24999 13.0394 4.13199 14.8767 3.04599 12.8474ZM11.9393 7.92408C10.432 7.92408 9.20733 6.71408 9.20733 5.21275C9.20733 3.71808 10.4287 2.50141 11.9393 2.50141C13.436 2.50141 14.6607 3.71808 14.6607 5.21275C14.6607 6.71808 13.4353 7.92808 11.9393 7.92408Z" fill="#F5F7FA"/>
<path d="M11.9467 3.03741C10.7433 3.03741 9.76867 4.00875 9.76867 5.20741C9.76867 6.40608 10.74 7.37741 11.9467 7.37741C13.1427 7.37741 14.1247 6.40941 14.1247 5.20741C14.1247 4.00541 13.1427 3.03741 11.9467 3.03741Z" fill="#F5F7FA"/>
</g>
<defs>
<clipPath id="clip0">
<rect width="16" height="16" fill="white"/>
</clipPath>
</defs>
</svg>
