<svg width="16" height="16" viewBox="0 0 16 16" fill="none" xmlns="http://www.w3.org/2000/svg">
    <linearGradient id="gradient" gradientUnits="userSpaceOnUse"  gradientTransform="rotate(95)">
        <stop offset="0" stop-color="#E255F2"/>
        <!-- Colors to transition from -->
        <stop offset="1" stop-color="#3D97F2"/>
    </linearGradient>
<g clip-path="url(#clip0)">
<path d="M15.4367 9.26196C15.914 5.24396 15.2073 2.70729 13.9327 1.55996L13.9333 1.55929C11.876 -0.400045 4.92801 -0.690045 2.46667 1.64729C1.36134 2.79062 0.972007 4.46862 0.92934 6.54596C0.886674 8.62396 0.836007 12.5166 4.46334 13.5726H4.46667L4.46334 15.1853C4.46334 15.1853 4.43867 15.8386 4.85601 15.97C5.33334 16.1246 5.54934 15.8213 7.03401 14.048C9.51667 14.2633 11.4233 13.77 11.64 13.698C12.1413 13.53 14.978 13.1546 15.4367 9.26196ZM7.27867 12.9133C7.27867 12.9133 5.70734 14.8726 5.21867 15.3813C5.05867 15.5466 4.88334 15.5313 4.88601 15.2033C4.88601 14.988 4.89801 12.526 4.89801 12.526C1.82267 11.6446 2.00401 8.32996 2.03734 6.59596C2.07067 4.86129 2.38801 3.44062 3.32401 2.48396C5.48334 0.459289 11.5747 0.911955 13.1267 2.37062C15.024 4.05262 14.3487 8.80462 14.3527 8.96662C13.9627 12.216 11.664 12.422 11.2413 12.5626C11.0607 12.6226 9.38401 13.054 7.27867 12.9133Z" fill="url(#gradient)"/>
<path d="M8.14801 2.86456C7.89135 2.86456 7.89135 3.26456 8.14801 3.2679C10.1393 3.28323 11.7793 4.67123 11.7973 7.21723C11.7973 7.4859 12.1907 7.48256 12.1873 7.2139H12.1867C12.1653 4.47056 10.3747 2.8799 8.14801 2.86456Z" fill="url(#gradient)"/>
<path d="M10.7673 6.7953C10.7613 7.06063 11.154 7.0733 11.1573 6.80463C11.19 5.29196 10.2573 4.04596 8.50467 3.91463C8.248 3.89596 8.22133 4.2993 8.47733 4.31796C9.99734 4.4333 10.798 5.47063 10.7673 6.7953Z" fill="url(#gradient)"/>
<path d="M10.3473 8.51606C10.018 8.32539 9.68268 8.44406 9.54402 8.63139L9.25402 9.00673C9.10668 9.19739 8.83135 9.17206 8.83135 9.17206C6.82202 8.64073 6.28469 6.53806 6.28469 6.53806C6.28469 6.53806 6.26002 6.25339 6.44402 6.10073L6.80669 5.80073C6.98802 5.65673 7.10269 5.31006 6.91802 4.96939C6.42469 4.07806 6.09336 3.77073 5.92469 3.53473C5.74736 3.31273 5.48069 3.26273 5.20336 3.41273H5.19736C4.62069 3.75006 3.98936 4.38139 4.19136 5.03139C4.53602 5.71673 5.16936 7.90139 7.18802 9.55206C8.13668 10.3327 9.63802 11.1327 10.2753 11.3174L10.2813 11.3267C10.9093 11.5361 11.52 10.8801 11.846 10.2861V10.2814C11.9907 9.99406 11.9427 9.72206 11.7313 9.54406C11.3567 9.17873 10.7913 8.77539 10.3473 8.51606Z" fill="url(#gradient)"/>
<path d="M8.77937 5.4026C9.42004 5.43994 9.73071 5.7746 9.76404 6.46194C9.77604 6.73061 10.166 6.71194 10.154 6.44327C10.1114 5.54594 9.64338 5.04593 8.8007 4.99927C8.54403 4.98393 8.52003 5.38727 8.77937 5.4026Z" fill="url(#gradient)"/>
</g>
<defs>
<clipPath id="clip0">
<rect width="16" height="16" fill="white"/>
</clipPath>
</defs>
</svg>
