<svg width="16" height="16" viewBox="0 0 16 16" fill="none" xmlns="http://www.w3.org/2000/svg">
    <linearGradient id="gradient" gradientUnits="userSpaceOnUse"  gradientTransform="rotate(95)">
        <stop offset="0" stop-color="#E255F2"/>
        <!-- Colors to transition from -->
        <stop offset="1" stop-color="#3D97F2"/>
    </linearGradient>
<g clip-path="url(#clip0)">
<path d="M13.2767 8.68525C13.018 8.35859 13.092 8.21325 13.2767 7.92125C13.28 7.91792 15.4153 4.96725 15.6353 3.96659L15.6367 3.96592C15.746 3.60125 15.6367 3.33325 15.108 3.33325H13.3587C12.9133 3.33325 12.708 3.56325 12.598 3.82059C12.598 3.82059 11.7073 5.95259 10.4473 7.33459C10.0407 7.73392 9.85266 7.86192 9.63066 7.86192C9.52133 7.86192 9.35133 7.73392 9.35133 7.36925V3.96592C9.35133 3.52859 9.22666 3.33325 8.85799 3.33325H6.10733C5.82799 3.33325 5.66199 3.53725 5.66199 3.72725C5.66199 4.14192 6.29199 4.23725 6.35733 5.40392V7.93525C6.35733 8.48992 6.25666 8.59192 6.03333 8.59192C5.43866 8.59192 3.99533 6.45125 3.13999 4.00125C2.96733 3.52592 2.79866 3.33392 2.34999 3.33392H0.599992C0.100659 3.33392 -7.62939e-06 3.56392 -7.62939e-06 3.82125C-7.62939e-06 4.27592 0.594659 6.53659 2.76533 9.52325C4.21199 11.5619 6.24933 12.6666 8.10266 12.6666C9.21666 12.6666 9.35266 12.4213 9.35266 11.9993C9.35266 10.0513 9.25199 9.86725 9.80999 9.86725C10.0687 9.86725 10.514 9.99525 11.554 10.9786C12.7427 12.1446 12.938 12.6666 13.6033 12.6666H15.3527C15.8513 12.6666 16.104 12.4213 15.9587 11.9373C15.626 10.9193 13.378 8.82525 13.2767 8.68525Z" fill="url(#gradient)"/>
</g>
<defs>
<clipPath id="clip0">
<rect width="16" height="16" fill="white"/>
</clipPath>
</defs>
</svg>
