<svg width="16" height="16" viewBox="0 0 16 16" fill="none" xmlns="http://www.w3.org/2000/svg">
    <linearGradient id="gradient" gradientUnits="userSpaceOnUse" gradientTransform="rotate(95)">
        <stop offset="0" stop-color="#E255F2"/>
        <!-- Colors to transition from -->
        <stop offset="1" stop-color="#3D97F2"/>
    </linearGradient>
<g clip-path="url(#clip0)">
<path d="M11.6713 9.53813L11.6653 9.58813C10.1993 8.85747 10.046 8.76013 9.85666 9.04413C9.72533 9.2408 9.34266 9.6868 9.22733 9.8188C9.11066 9.9488 8.99466 9.9588 8.79666 9.8688C8.59666 9.7688 7.95466 9.5588 7.19466 8.8788C6.60266 8.3488 6.20533 7.6988 6.08799 7.4988C5.89266 7.16147 6.30133 7.11347 6.67333 6.40947C6.73999 6.26947 6.70599 6.15947 6.65666 6.06013C6.60666 5.96013 6.20866 4.98013 6.04199 4.58947C5.88199 4.20013 5.71733 4.24947 5.59399 4.24947C5.20999 4.21613 4.92933 4.22147 4.68199 4.4788C3.60599 5.66147 3.87733 6.88147 4.79799 8.1788C6.60733 10.5468 7.57133 10.9828 9.33399 11.5881C9.80999 11.7395 10.244 11.7181 10.5873 11.6688C10.97 11.6081 11.7653 11.1881 11.9313 10.7181C12.1013 10.2481 12.1013 9.85813 12.0513 9.76813C12.002 9.67813 11.8713 9.62813 11.6713 9.53813Z" fill="url(#gradient)"/>
<path d="M13.68 2.29938C8.55399 -2.65596 0.070659 0.938044 0.0673257 7.92871C0.0673257 9.32605 0.433326 10.6887 1.13066 11.892L-7.62939e-06 16L4.22333 14.8987C9.49333 17.7454 15.9973 13.9654 16 7.93271C16 5.81538 15.1733 3.82271 13.67 2.32538L13.68 2.29938ZM14.668 7.91071C14.664 12.9994 9.07799 16.1774 4.65999 13.58L4.41999 13.4374L1.91999 14.0874L2.58999 11.6574L2.43066 11.4074C-0.318674 7.03071 2.83999 1.31071 8.04799 1.31071C9.81733 1.31071 11.478 2.00071 12.7287 3.25071C13.9787 4.49004 14.668 6.15071 14.668 7.91071Z" fill="url(#gradient)"/>
</g>
<defs>
<clipPath id="clip0">
<rect width="16" height="16" fill="white"/>
</clipPath>
</defs>
</svg>
